<?xml version="1.0" encoding="UTF-8"?>
<svg version="1.1" viewBox="0 0 2048 1667" width="818" height="666" xmlns="http://www.w3.org/2000/svg">
<path transform="translate(0)" d="m0 0h2048v1667h-2048z" fill="#FAFAFA"/>
<path transform="translate(1361,98)" d="m0 0h27l16 4 8 5 7 10 9 15 14 21 7 9 5 4 16 5 28 7 25 7 28 7 19 5 16 6 20 10 20 12 21 12 22 14 14 10 10 7 13 5 7 7 6 10 2 5v10l-6 9-7 4-9 2h-11l-14-2-17-5-3-2-17 1-25-4-39-7-16-3h-8l-23 3-13 2-27 2-22 2h-12l-1 10-5 25-8 24-9 12-9 10-4 5-11 9-14 10-11 8-17 12-7 2-20 1 5 5 8 7 8 12 1 20 4 10 9 17 6 12 3 12 3 24 5 26 4 28 3 26 2 19 1 26 4 4 7 15 6 8 7 7 10 13 8 15 1 3v11l-4 7-9 8-7 9-8 9-5 8-1 3v7l2 9 2 16 7 22 3 16 5 14 5 11 1 10-3 23v12l2 9 5 10 8 15 11 27 1 9-1 11v15l3 9 13 21 6 8 8 16 18 38 5 17 5 19 9 24 6 21 1 12-1 9 6-1 11 13 12 14 8 11 2 6-2 18-6 14-9 13-3 2 2 16 1 5 7 1h13l34-6 23-1 13-1 14 1h12l40-7 23 1 26-3 53-3 13-1 4 1 16-4 10-1 19 5 11 5 9 5 13 2 19 1 11 9 10 12 10 6 4 6 7 28 6 9 1 3v7l-5 15-4 8-6 5-14 2-26 2-33 1-26 13-26 7-16 4-51 8-44 11h-15l-16-2-21 6-30 8-27 8-18 3h-23l-34-5-35-8-31-6-7-1-18-1h-22l-41 2h-24l-19-1h-31l-27 2h-9l-1-1-10 1-30 6-38 11-31 5-21 6-15 5-31 5-19 3-60 7-19 5-19 8-8 4-14 3-52 1-14 2-25 8-31 8-20 3-32 3-14 3-2 1-35 1-6 1-20 1-64 2-57 3-18 2h-23l-59-10-8-1-32-2-10-5-10-6-28-7-22-7-23-4-17-7-11-6-11-8-7-1-5 1h-11l-5-4-5-9-7-1-17 1-4-4-3-6v-2l-16-4-16-5-16-7-18-13-11-7-16-8-10-7-8-9-5-10-5-26-2-32 3-16 6-16 6-9 8-8 14-9 12-11 8-5 16-6 44-11 16-3 15-1h47l12 3 13 5 7 1 16-1 21-3 19-1h43l26 4 21 6 15 6 22 11 24 11 17 3 8 1 35 1 2 1 1-7 4-8 9-10 4-3 4-8 8-8h2v-17l4-6 12-4 1-2v-8l3-6-1-4-3-8-1-11-9-20-1-5v-9l2-14 1-15 8-25v-15l-3-12 1-19 6-12 10-7 32-17 12-7 8-7 7-6 8-14 4-11 1-6v-14l-5-19 1-10 9-19 8-15 6-11 11-15 2-3 3-19 9-25 2-17 9-3 16-32 3-4 1-6v-9l-2-17v-39l5-40 5-23 4-17 4-16 27-60 10-24 8-17 9-28 3-17 8-15 8-8 6-10 7-18 8-16 10-18 13-18 12-10 4-3 1-17 2-9 6-8 8-6 16-3 20-2 12-3 5-25 3-10 9-14 9-10 5-4 7-16 8-7 5-4h2l2-4 6-16 7-16 7-13 10-13 21-21 14-36 5-5 14-7 17-3 28-3h44l60 5 10 1z" fill="#584023"/>
<path transform="translate(829,915)" d="m0 0h3v2l-24 10-17 10-1 1-1 7-1 18v37l-3 9h-3l2-7v-37l-14 21-8 13-2 8 8-14 11-19 2-1-1 5-17 33-7 10-9 17-9 10-11 9-22 12-21 11-10 9-4 9v13h3l10-7h2l-2 4-11 9 1 1 13-10h6l10-5v3l-8 4 4 4 5 2 7-5h2l-1 3-6 4 1 3 4 2 11-7h3v2l-10 6 1 3 3 2 4-1 7-5 4 1-8 6v3l4 1 7-6 3-1-2 4-4 5 7 2 19-12 4-2h5l-3 3-15 8-4 3h-2v2l10-4 12-7 17-5h6v2l-23 7-5 3 5-1 29-9 29-8 22-4 11-7 14-10 19-9 43-15 14-7 14-10 10-7 2-1h7l8-7 7-6h2v-2l7-5h2v4l21-9 17-6 8-5 13-2h10l32-5 26-4 31-4h10l12 6h4l-13-6-5-3v-1l9 1 17 9 9 3h3l-19-10-13-5 1-2 12 3 16 8 10 7 7 1h10l5-1h11l6 1 17 1 17 5 37 1 12 6 3 2 1-2 14 9 11 9 10 9 11 8 14 20 11 13 9 16 7 12 6 7 3 2h6l6-22 3-3 5 2 8 14 8 13 2 7-4 8-8 10-8 7h-4l2-4 9-8-4 2-11 7-4 1-14-10-9-6-15-6-19-6-23-5-37-1-20-1-31-3-32-2-12-3-30-10-12-3h-13l-32 2-21 3-25 6-26 9-5 1h-19l-39-3-28-3-26-1h-42l-18 3h-12l-8-1-23 4-20 4-26 4-19 5-20 8-11 6-18 12-16 10-14 8-8 7h-2l2-4 11-9 2-2h-3l-10 10h-3l1-4 11-9-1-2-5 2-6 5h-3l3-9 4-5-7 4-3-1 6-6-9 5h-3l1-3 6-4-4 2-11 6v-3l12-9 4-1v-3l-8 4-7 5-2-1 5-5 8-6-1-6-6-14-8 7-3 6 6-4h2l-2 4-5 5-2 3-5 17-2 5-1 22 4-2 4 1-8 8-1 5 8-8h2l-1 4-5 5v3l4-1 4-4 2 1-3 6 5 1 5-6h3l-2 5-2 2 3 1 1-3 7-4-1 4-2 2 5-2 6-7 3-1v3l-1 2 11-9 4-3h2l-2 4-4 5 19-10 8-7 15-10 16-12 15-7 46-1 13-1 9-2 18-1 19-2 10-5 4 1-3 5-13 9-12 5-36 10-28 7-25 7-29 7-23 7-10 6-12 5-13 10-12 10-6 4h-8l-3 2v5l4 4 4 2-6 7-1 1v7l1 7-14 3-5 4v18l-8 6-5 8-2 5-10 9-5 8-2 10-1 1h-66l-10-1 1-3 8-1-16-8-5-2-5 1-22 5-70 10-4-1v-2l31-5 47-6 16-4 1-1h-9l-34 6-44 5-14 1v-3l74-9 15-3h3v-2l-11-3-36 6-48 7-5 1h-8l-1-2 30-5 56-8 9-2-11-4h-11l-40 7-35 6h-7v-2l21-4 44-8 15-3-2-1h-25l-37 7-15 3h-5l1-3 29-6 25-5h-16l-18 2-26 4-1-3 5-1-1-1h-13l-22 3h-12l-15-4-13-4-7-1h-41l-19 2-28 6-30 8-15 6-6 4-3 4-4 10h-3l-2-4-11 7-10 9-6 10-4 12-3 13-2 18h2l2 13 2 12 4 21 4 6 1 3h2v2l4 2 13 8 10 6 26 16 15 8 22 8 14 5 4 4 3 6h24l5 5 5 8 6 1 13-3 14 8 11 7 16 7 32 7 41 12 21 9 4 1 33 3 63 10h23l38-3 71-4 40-2 54-4 22-2 21-1 16-3 27-7 29-8 19-3 54-1 12-3 17-8 21-7 23-4 57-7 35-5 31-9 20-4 23-5 35-10 41-9 43-11 21-4 10-1 41-2 14-3 26-10 22-10 36-16 26-10 34-14 26-8 29-7h5v-5l3 1 1 3 5 1-3-7-17 3-16 5-34 12-20 8h-2l1-3 19-8 43-15 13-4 36-6 18-4 23-9h2l-1 3-24 10h-3l4 8v2l22-9 30-13 19-7 18-5h45l33-9 21-6 7 1 24 8 8 2h7v2h12l6 2v-2h2v2l6-1-5-15h-3l-2 4-2-4v-2h20l11 9 10 12 10 6 4 6 7 28 6 9 1 3v7l-5 15-4 8-6 5-14 2-26 2-33 1-26 13-26 7-16 4-51 8-44 11h-15l-16-2-21 6-30 8-27 8-18 3h-23l-34-5-35-8-31-6-7-1-18-1h-22l-41 2h-24l-19-1h-31l-27 2h-9l-1-1-10 1-30 6-38 11-31 5-21 6-15 5-31 5-19 3-60 7-19 5-19 8-8 4-14 3-52 1-14 2-25 8-31 8-20 3-32 3-14 3-2 1-35 1-6 1-20 1-64 2-57 3-18 2h-23l-59-10-8-1-32-2-10-5-10-6-28-7-22-7-23-4-17-7-11-6-11-8-7-1-5 1h-11l-5-4-5-9-7-1-17 1-4-4-3-6v-2l-16-4-16-5-16-7-18-13-11-7-16-8-10-7-8-9-5-10-5-26-2-32 3-16 6-16 6-9 8-8 14-9 12-11 8-5 16-6 44-11 16-3 15-1h47l12 3 13 5 7 1 16-1 21-3 19-1h43l26 4 21 6 15 6 22 11 24 11 17 3 8 1 35 1 2 1 1-7 4-8 9-10 4-3 4-8 8-8h2v-17l4-6 12-4 1-2v-8l3-6-1-4-3-8-1-11-9-20-1-5v-9l2-14 1-15 8-25v-15l-3-12 1-19 6-12 10-7 32-17 12-7 8-7 7-6 8-14 4-11 1-6v-14l-3-11v-6l5-5 13-18 8-10 5-6 11-8 14-8 15-6z" fill="#2C1804"/>
<path transform="translate(992,582)" d="m0 0 4 1-13 8 10-1 11-4h4l-1 3-4 1h7l3-2 9-1-1 3-6 1 10 2h2v-2l4-2 4 1-2 1v2l-3 1 1 1 8 1v-2l6-1v2l-5 1v2l13 2 14 7 19 13 9 9 13 18 10 15 10 11 11 14 12 24 9 15 11 20 13 21 10 15 6 7 2 1v3h-5l6 10 7 6-1 3h-2l3 6 5 4 6 3-1 2h-5l5 11 8 5 7 3v6l10 1-1 3h4v-4l7-1-3 5 9-3 3-3 5 1h9l2-5 4-5h2l-1 5-1 3 7-6 5-8h2l-1 9 12-9 17-13 22-14 18-10 46-22 3-2 1-4h5l10-9 7-6 2-2v5l-9 10-5 5-9 10-8 11-2 5v7l2 9 2 16 7 22 3 16 5 14 5 11 1 10-3 23v12l2 9 5 10 5 9-1 3-12-20-3-9v-17l2-17v-10l-6-10-9-12-5 15-6 10-7 8-3-1 12-17 4-11 2-7-1-8-1-4-6 12-8 11 5-5 4-2-3 7-9 12-9 11 5-4 10-13 5-6 1 3-5 9-9 10-5 6-4-1-6-8-5-5-6 2-5 1 13 13 1 4-4-2-5-5-8-7-3 1 6 4 11 11-5-1-12-10 4 5 5 6v2l-4-2-9-9 2 5 3 4v2h-8l-24-8 2 10 7 15-1 3-4-3 4 5h41l-1 2-18 2h-17l7 5 1 2 4-2 15-3-1 4 18-6 2 1-8 5-14 7-2 3 6-2 13-7 2 1-7 6-19 9-5-2-8-7-1-3-4-2-13-11-19-13-32-24-12-8-13-6 2 4 2 5-4-2-7-9-2-1 7 14v2l-4-2-3-3-1 4-10 6-11 6h-2v-3h4v-2l-14 3-15 3-19 7-7 4-3-1 4-3-12 2-14 7h-2l1-3 5-3h2v-2l-17 8-6 3 2-4h2v-2l-13 7-6 5-2-1 4-5 5-4 1-2-11 6-10 8h-2l2-4 4-2v-2l-21 7-14 4-6 1-15 2-7 2h-9l-6-1h-2v2l-5 1 1-4-6 4-3-1 1-2-3 1-1 2h-4l1-4-5 4-4-1 2-4-6 3-4-1v-2l-9-1-2-1 1-3 15-8 8-3h5l-3 3-13 5-7 4 8 1h3l14-10 14-8h5l-4 4-12 6-11 8-1 2 9-1 14-10 9-5h5v2l9-5h3v2l-13 7-8 6 12-5 11-4 14-12 9-7 2 2h-2l-2 4-3 3 2 1 2-4 7-6h2l-1 4-4 5 16-14 6-4 6-8h2l-1 6 8-6 7-8 3-4h2l-2 10 6-5 7-8h3l-1 4-1 3h3l2-5 1-3 5 2-1-4-18-11-11-8-12-9 4 5 3 2v2l4 2 9 7-3 1-9-6-20-20-8-6-4-2 8 11 13 14 14 8-4 1-11-6-14-12-13-14-6-8-7-8 2 5 9 10 9 11 9 10 5 4v2l-5-2-7-6-9-11-9-10-6-8-2-1 4 6 9 13 10 14v2l-4-1-14-21-9-11-4-5-3-1 8 16 7 9 4 5v2l-4-1-11-15-10-21-8-13-11-19-10-19v-4h3v-2h-3v-2l-3-1-9-13 10 30 9 20 8 14 14 22 9 13h-3l-6-7-15-23-8-13-8-17-11-28-5-17-6-28-1-8-1-35-2-19-3-2v64h-2l-1-17v-45l-1-4-1 1-1 21v46l-1 7-6 9-9 15-7 10-6 9h-2l2-6 10-16 9-14 6-12 1-39v-20l1-7-2 1-1 4v52h-3l-1-2v-49l-2 4-2 40h-3v-38l-11 11-8 7-3 3 1 3 19 9v2l-5-1-15-7-4 1-8 7-3 2-4 14-15 15-4 6h-4l2-4 11-12 7-7 4-13 11-10 6-10 7-14 2 1-2 6-2 3 1-1 10-9 9-9 8-7 13-13 1-3-8 7-15 16-4 2-1 3-4 2 1-5 2-6 1-5-3 2h-4l1-10 5-11 8-11 1-1-1-16-4-1-8-8-9-5 4-1 8 4 8 8 4-3 9-3 10-7 6-1-4 4-6 4 7-1z" fill="#190A02"/>
<path transform="translate(1182,122)" d="m0 0h2l3 10 7 11 13 17 10 17 4 6 1 8 1 23 5 19h2l4-2v3l-3 3v7l5-4h2l-2 5v6l4-2 8-7 4-2 4 1-13 10-5 6 6-4 9-8 12-7v3l-14 10-9 9v4l18-13 6-3-1 4-13 9-6 5v5h3l2-4 10-8 3 1-13 12-1 4 7-4 7-5h2l-2 4-8 6-1 4 8-6 4-2-2 5-7 7-1 2 8-6 1 4-3 4h-2v2l4-1 2-3 2-20 5-19 6-20 6-15 10-16 11-14 3-3h3l-1 5v24l1 30 5 17 7 14 13 19 10 14 5 9 2 8v14l-2 23v9l1 11 3 7 2 1h9l9-4 3-4-6 1v-3l10-5h2v-5l-9 6-4 1v-3l13-8 2-6-11 8h-2l2-4 9-7 1-5-11 6-3-1 3-3 8-5h2l-1-4-9 6h-2l2-4 5-3h2l-2-5-7 2 2-4v-4l-7-7-9-12-8-11-7-10-11-16-8-16-5-16-5-20v-14l3-16 8-16 7-9 9-8 5-2-2 4-10 9-10 16-4 10-2 10v17l5 8 5 2 6-1 8-5h3l-2 4-10 5-1 3 16-7 5-1-4 4-13 6h-3l1 4 33-11h5l-3 3-23 7-10 4h-2l2 9 8 15 3 2 1-3 10-7 16-8 18-7 8-1-2 3-18 6-21 10-9 6-1 6 12 21 12 14 8 6 5 2 11 1 8-2-15-5-10-6-8-7-3-5 1-6 5-6 3-1h14l21 4 6-1 28-7 17-6 3 1-1 2-24 8-18 4v1h12l14-5 29-8 7-1v2l-18 5 10 7 2 1 12 1 1-4 7 4 11 2h4l-4-3v-3l4 2 5 4 6 2h9l1-1-3-2 1-2 4 2v2l10 1h12l13 2h26l-8 4v2h-10l-26-5h-8l-23 3-13 2-27 2-22 2h-12l-1 10-5 25-8 24-9 12-9 10-4 5-11 9-14 10-11 8-17 12-7 2-20 1 5 5 8 7 8 12 1 20 4 10 9 17 6 12 3 12 3 24 5 26 4 28 3 26 2 19 1 26 4 4 7 15 6 8 7 7 10 13 8 15v6l-2-2-3-8-12-17-11-12-6-8-8-16-1 9h-4v-21l-2-30-4-25-5-39-5-28-3-24-3-10-12-22-5-11-4-26-9-10-11-9-5-4-17-1-6 2-15 11h-2l-1 6 22-12h3l-1 3-21 12v3l13-8 10-5v4l-18 10-5 2 2 4 17-10 6-1-5 5-15 8-2 3 18-5 3 1-8 4-9 3 1 2 15-4 10-4v3l-12 6-12 3 4 1 11-3 11-5-1 4-12 6-8 2v3h8l15-4h3v2l-8 3-14 3-1 1 6 2 24 1-1 2-11 2 14 5v2l-8-1-25-10-8-6-7-3 7 11 5 7-1 3-9-11-9-15-3-1 9 16 12 15v2l-4-2-7-7-11-18-5-9-5-1 6 12 10 13 9 10 11 11 2 1v3l-4-2-10-9-7-6-11-14-6-10-3-6v-2h-2l5 12 10 16 9 12 7 6 17 12 11 9 3 4v8l-1 5v18l-1 7 1 4-5-2-3-3-1 7 5 6v2l-4-2-13-13-4-5 2 6 7 7 7 8 7 7v2l-4-1-18-18v-2h-2l6 9 11 11 1 3-5-2-9-8-3-4 1 4 9 10 7 7v3l-4-2-15-15 1 4 8 8 4 7-4-2-10-9v7l10 10 3 2v2l-4-1-10-9 2 4 10 11 1 4-4-2-10-10-1-2v7l7 8 11 10 7 5 2-4 7-20 8-21 4-11 3-1-1 5-10 28-7 18-2 9 4-4 8-16 10-22 5-15h2l-1 6-8 23-11 23-5 6-5 1-15-10-13-12 1 4 11 12 8 7 12 9 3-1 10-15 8-16 5-17 3-11h2l-1 9-4 15-6 15-7 12-12 16v2l8-8 6-8 6-10 5-11 6-19h2l-1 9-7 20 3-4 5-12h2l-1 8-4 9 3-3 2-4h2l1 7v13l-1 2 3 1 5 12 4 7-2 4-7 7-14 7-3 1h-23l-21-3-10-2-11-1 4 7 7 11 1 4h-3l-7-13-6-7-3-1 13 19 1 4-3-1-12-17-2-4h-3l11 15 5 8 2 4 6 10 7 18 9 19v2h-3l-13-28-5-13-6-8-1-1h-5l9 16 8 21 3 9v5h-2l-9-27-10-19-5-5 15 29 5 15v5l-2 2-4 1h-13l-17-1-13-5-10-7-10-9-3-3v9l2 7-4-2-4-21-2-4 1 10 1 9h-2l-2-5-2-12-4-2-2 7-2-2-2-4-3-17-1-12-3-3 2 13 1 4v8l-2-1-2-7-1-12-4 1-3-12-2-13-4-8 2 9v5l-3-2-4-17-10-15-16-25-7-9-2-7-8-10-9-10-10-10-8-7-6-7 1-2 5 5 13 12 10 9 7 8 8 10 3 4 3 1-13-19-8-11-11-10-5-4 1-2 11 8 8 8 11 16 8 10 3 3 9 2-8-11-9-11-11-12-2-3 4 1 11 11 8 10 11 16h3l-8-12-2-4h3l11 16 7 6 2 1-10-14v-3h2l9 12 5 7v2l5 2 6 4-1-7-5-11v-2l3 1 12 26 7 10-8-16-8-20v-3l3 1 11 25 10 18 8 11v-3l-13-19v-3l4 1-4-7-9-13-6-12 1-4 3 3 8 16 13 18 11 13 9 11 14 14 13 18 4 7 5 2-9-13-12-13-10-13-13-14-11-14-13-18-6-12-2-8v-6h2l6 18 4 8 13 17 9 11 11 13 18 20-4-6-9-10-11-14-7-8-9-13-8-16-10-21-4-12v-5l3 3 8 21 9 19 2 1-4-12-11-23-7-21-3-12-16 8-11 5h-2l1-3 23-11 4-3 2-4 2 4 6 22 8 22 7 15-2-6-8-20-5-21-1-7h2l-5-13-5-15-1-6 4 4 4 9v-15l-2-10 4 3 1 3 2-4v-13l3 2v5h2l1-12-1-5 3 1 1 2 3-7h-2v-7h2l2 5v-12h3l1 1 2-6-1-7-1-8 1-10-6-12-6-8-17-5-30-5-14-1-12-5-4-4 1-5 5-5 9-4h17l16 4 22 8 24 5 26 4 54 1 13-17 4-7-1-1-9 10-5 5-5 1 2-4 7-6 9-12 2-4v-6l-6 10-9 11-8 9h-3l1-4 8-8 10-13 5-9v-6l-4 1-10 19-5 7h-2l2-6 6-10 5-13v-3l-9 14-7 7-3-1 8-9 7-12 1-3v-11l-1-3-5 12-8 14-5 6h-2l1-4 10-16 4-10v-11h-2l-1 12-8 16-5 7-3-1 2-5 6-8 5-12v-11l-4-2-1 10-4 10-2 2-9-1-10-6-10-9-14-16-5-5-8-10-6-10-3-3v-2l-4-2-23-23-3-6-9-43-4-11-6-10-8-10-7-6-1-5 6 4 7 8 6 7 6 10 5 15 6 28 3 12 6-2 3-6v-14l-1-7-1-14-3-37-3-17-6-12-11-14-7-11-3-7z" fill="#1A0B02"/>
<path transform="translate(829,915)" d="m0 0h3v2l-24 10-17 10-1 1-1 7-1 18v37l-3 9h-3l2-7v-37l-14 21-8 13-2 8 8-14 11-19 2-1-1 5-17 33-7 10-9 17-9 10-11 9-22 12-21 11-10 9-4 9v13h3l10-7h2l-2 4-11 9 1 1 13-10h6l10-5v3l-8 4 4 4 5 2 7-5h2l-1 3-6 4 1 3 4 2 11-7h3v2l-10 6 1 3 3 2 4-1 7-5 4 1-8 6v3l4 1 7-6 3-1-2 4-4 5 7 2 19-12 4-2h5l-3 3-15 8-4 3h-2v2l10-4 12-7 17-5h6v2l-23 7-5 3 5-1 29-9 29-8 22-4 11-7 14-10 19-9 43-15 14-7 14-10 10-7 2-1h7l8-7 7-6h2v-2l7-5h2v4l21-9 17-6 8-5 13-2h10l32-5 26-4 31-4h10l12 6h4l-13-6-5-3v-1l9 1 17 9 9 3h3l-19-10-13-5 1-2 12 3 16 8 10 7 7 1h10l5-1h11l6 1 17 1 17 5 37 1 12 6 3 2 1-2 14 9 11 9 10 9 11 8 14 20 11 13 9 16 7 12 6 7 3 2h6l6-22 3-3 5 2 8 14 8 13 2 7-4 8-8 10-8 7h-4l2-4 9-8-4 2-11 7-4 1-14-10-9-6-15-6-19-6-23-5-37-1-20-1-31-3-32-2-12-3-30-10-12-3h-13l-32 2-21 3-25 6-26 9-5 1h-19l-39-3-28-3-26-1h-42l-18 3h-12l-8-1-23 4-20 4-26 4-19 5-20 8-11 6-18 12-16 10-14 8-8 7h-2l2-4 11-9 2-2h-3l-10 10h-3l1-4 11-9-1-2-5 2-6 5h-3l3-9 4-5-7 4-3-1 6-6-9 5h-3l1-3 6-4-4 2-11 6v-3l12-9 4-1v-3l-8 4-7 5-2-1 5-5 8-6-1-6-6-14-8 7-3 6 6-4h2l-2 4-5 5-2 3-5 17-2 5-1 22 4-2 4 1-8 8-1 5 8-8h2l-1 4-5 5v3l4-1 4-4 2 1-3 6 5 1 5-6h3l-2 5-2 2 3 1 1-3 7-4-1 4-2 2 5-2 6-7 3-1v3l-1 2 11-9 4-3h2l-2 4-4 5 19-10 8-7 15-10 16-12 15-7 46-1 13-1 9-2 18-1 19-2 10-5 4 1-3 5-13 9-12 5-36 10-28 7-25 7-29 7-23 7-10 6-12 5-13 10-12 10-6 4h-8l-5 2-1 4-2-2-1-11-9-20-1-5v-9l2-14 1-15 8-25v-15l-3-12 1-19 6-12 10-7 32-17 12-7 8-7 7-6 8-14 4-11 1-6v-14l-3-11v-6l5-5 13-18 8-10 5-6 11-8 14-8 15-6z" fill="#190A02"/>
<path transform="translate(672,1239)" d="m0 0h1l2 6 3 3 4 2-6 7-1 1v7l1 7-14 3-5 4v18l-8 6-5 8-2 5-10 9-5 8-2 10-1 1h-66l-10-1 1-3 8-1-16-8-5-2-5 1-22 5-70 10-4-1v-2l31-5 47-6 16-4 1-1h-9l-34 6-44 5-14 1v-3l74-9 15-3h3v-2l-11-3-36 6-48 7-5 1h-8l-1-2 30-5 56-8 9-2-11-4h-11l-40 7-35 6h-7v-2l21-4 44-8 15-3-2-1h-25l-37 7-15 3h-5l1-3 29-6 25-5h-16l-18 2-26 4-1-3 5-1-1-1h-13l-22 3h-12l-15-4-13-4-7-1h-41l-19 2-28 6-30 8-15 6-6 4-3 4-4 10h-3l-2-4-11 7-10 9-6 10-4 12-3 13-2 18h2l2 13 2 12 4 21 4 6 1 3h2v2l4 2 13 8 10 6 26 16 15 8 22 8 14 5 4 4 3 6h24l5 5 5 8 6 1 13-3 14 8 11 7 16 7 32 7 41 12 21 9 4 1 33 3 63 10h23l38-3 71-4 40-2 54-4 22-2 21-1 16-3 27-7 29-8 19-3 54-1 12-3 17-8 21-7 23-4 57-7 35-5 31-9 20-4 23-5 35-10 41-9 43-11 21-4 10-1 41-2 14-3 26-10 22-10 36-16 26-10 34-14 26-8 29-7h5v-5l3 1 1 3 5 1-3-7-17 3-16 5-34 12-20 8h-2l1-3 19-8 43-15 13-4 36-6 18-4 23-9h2l-1 3-24 10h-3l4 8v2l22-9 30-13 19-7 18-5h45l33-9 21-6 7 1 24 8 8 2h7v2h12l6 2v-2h2v2l6-1-5-15h-3l-2 4-2-4v-2h20l11 9 10 12 10 6 4 6 7 28 6 9 1 3v7l-5 15-4 8-6 5-14 2-26 2-33 1-10 5h-2l2-4 8-6 9-2h26l32-3 6-4v-6l-4-9-1-7-1-10-1-3-4-14-6-9-8-7h-2v-2l-5-2-4-3-17-3-18-1-3-1-21-3h-11l-8-2-12 1-18 4-13 2-16 2h-14l-21 2-14 2-16 5-13 4-9 6-16 6-10 4-19 5-25 2-18 2-25 5-19 5-15 5-24 10-12 6-18 5-12 5-14 9-11 5-8 4-12 7-17 9-12 4-13 2-18 2-12 1-13 1-1 1 9 3h41l27-1h29l21 3 17 3 31 7 21 5 14 3 12 3 8 1v1h-17l-27-4-35-8-31-6-7-1-18-1h-22l-41 2h-24l-19-1h-31l-27 2h-9l-1-1-10 1-30 6-38 11-31 5-21 6-15 5-31 5-19 3-60 7-19 5-19 8-8 4-14 3-52 1-14 2-25 8-31 8-20 3-32 3-14 3-2 1-35 1-6 1-20 1-64 2-57 3-18 2h-23l-59-10-8-1-32-2-10-5-10-6-28-7-22-7-23-4-17-7-11-6-11-8-7-1-5 1h-11l-5-4-5-9-7-1-17 1-4-4-3-6v-2l-16-4-16-5-16-7-18-13-11-7-16-8-10-7-8-9-5-10-5-26-2-32 3-16 6-16 6-9 8-8 14-9 12-11 8-5 16-6 44-11 16-3 15-1h47l12 3 13 5 7 1 16-1 21-3 19-1h43l26 4 21 6 15 6 22 11 24 11 17 3 8 1 35 1 2 1 1-7 4-8 9-10 4-3 4-8 8-8h2v-17l4-6 12-4 1-2v-8l3-6-1-4-2-7z" fill="#1C0D03"/>
<path transform="translate(1094,584)" d="m0 0 3 1 6 7 8 7 12 11 7 8 8 10 3 4 3 1-13-19-8-11-11-10-5-4 1-2 11 8 8 8 11 16 8 10 3 3 9 2-8-11-9-11-11-12-2-3 4 1 11 11 8 10 11 16h3l-8-12-2-4h3l11 16 7 6 2 1-10-14v-3h2l9 12 5 7v2l5 2 6 4-1-7-5-11v-2l3 1 12 26 7 10-8-16-8-20v-3l3 1 11 25 10 18 8 11v-3l-13-19v-3l4 1-4-7-9-13-6-12 1-4 3 3 8 16 13 18 11 13 9 11 14 14 13 18 4 7 5 2-9-13-12-13-10-13-13-14-11-14-13-18-6-12-2-8v-6h2l6 18 4 8 13 17 9 11 11 13 9 10 10 11 13 18 5 8 2 4 6 10 7 18 9 19v2h-3l-13-28-5-13-6-8-1-1h-5l9 16 8 21 3 9v5h-2l-9-27-10-19-5-5 15 29 5 15v5l-2 2-4 1h-13l-17-1-13-5-10-7-10-9-3-3v9l2 7-4-2-4-21-2-4 1 10 1 9h-2l-2-5-2-12-4-2-2 7-2-2-2-4-3-17-1-12-3-3 2 13 1 4v8l-2-1-2-7-1-12-4 1-3-12-2-13-4-8 2 9v5l-3-2-4-17-10-15-16-25-7-9-2-7-8-10-9-10-10-10-8-7-6-7z" fill="#1A0A02"/>
<path transform="translate(672,1239)" d="m0 0h1l2 6 3 3 4 2-6 7-1 1v7l1 7-14 3-5 4v18l-8 6-5 8-2 5-10 9-5 8-2 10-1 1h-66l-10-1 1-3 8-1-16-8-5-2-5 1-22 5-70 10-4-1v-2l31-5 47-6 16-4 1-1h-9l-34 6-44 5-14 1v-3l74-9 15-3h3v-2l-11-3-36 6-48 7-5 1h-8l-1-2 30-5 56-8 9-2-11-4h-11l-40 7-35 6h-7v-2l21-4 44-8 15-3-2-1h-25l-37 7-15 3h-5l1-3 29-6 25-5h-16l-18 2-26 4-1-3 5-1-1-1h-13l-22 3h-12l-15-4-13-4-7-1h-41l-19 2-28 6-30 8-15 6-6 4-3 4-4 10h-3l-2-4-11 7-10 9-6 10-4 12-3 13-2 18h2l2 13 2 12 4 21 4 6 1 3h2v2l4 2 13 8 10 6 26 16 15 8 22 8 14 5 4 4 3 6h24l5 5 5 8 6 1 13-3 14 8 11 7 16 7 32 7 41 12 21 9 4 1 33 3 63 10h23l38-3 71-4 40-2 54-4 22-2 21-1 16-3 27-7 29-8 19-3 54-1 12-3 17-8 21-7 23-4 57-7 35-5 31-9 35-7 3 1-3 4-27 4-21 6-15 5-31 5-19 3-60 7-19 5-19 8-8 4-14 3-52 1-14 2-25 8-31 8-20 3-32 3-14 3-2 1-35 1-6 1-20 1-64 2-57 3-18 2h-23l-59-10-8-1-32-2-10-5-10-6-28-7-22-7-23-4-17-7-11-6-11-8-7-1-5 1h-11l-5-4-5-9-7-1-17 1-4-4-3-6v-2l-16-4-16-5-16-7-18-13-11-7-16-8-10-7-8-9-5-10-5-26-2-32 3-16 6-16 6-9 8-8 14-9 12-11 8-5 16-6 44-11 16-3 15-1h47l12 3 13 5 7 1 16-1 21-3 19-1h43l26 4 21 6 15 6 22 11 24 11 17 3 8 1 35 1 2 1 1-7 4-8 9-10 4-3 4-8 8-8h2v-17l4-6 12-4 1-2v-8l3-6-1-4-2-7z" fill="#251407"/>
<path transform="translate(1055,1133)" d="m0 0 3 1 1 5-8 10-9 10-15 10-29 16-23 9-22 6-25 7-27 8-9 2h-14l-28 4-28 6-21 7-16 8-3 2 6-3h4l-1 6 7-1 1 3h8l1 3-2 1h-65l-42-2 2-4 10-4 10-8 14-11 14-9 18-8 10 1 13 4h12l13-1 3 1 29-5 46-12 55-16 47-16 19-8 22-12z" fill="#190A02"/>
<path transform="translate(1330,1337)" d="m0 0 1 3-9 6 6-2 2-2h4l5 6h4l3 2h15l56-2 13-1h71v3l-21 1-50 1-30 2-34 1-80 1-16 2-10 2-8 1h-116l-27 2-12 2-9 1h-10l-25 3-15 1h-17l-27-2-23-6-23-1h-24l-38-3h-7l-1 1-85-1h-42l-11 1h-10l-1-1-22-1-32 4h-25l-18-3-3-1v-3l11 1 21 3 1-4h3v4l5-1 2-4 4-1-2 5 6-4 3 1-1 2 8-3 4-1v2l38-6 28-2 23-1 58-1h19l47 2 40 3 55 6 27 4h18l30-4h12l13-2 21-1 51-2 1-1 38 1 14 1 41 1 10-9 6-3h5l-4 4-11 7 4-1 12-8 8-3v3l6-2 4-2v3l-6 5-2 1 8-4 4-1 1 4 6-2z" fill="#1A0B02"/>
<path transform="translate(681,1115)" d="m0 0 2 2 2 7-10 10-2 4 6-4h2l-2 4-5 5-2 3-5 17-2 5-1 22 4-2 4 1-8 8-1 5 8-8h2l-1 4-5 5v3l4-1 4-4 2 1-3 6 5 1 5-6h3l-2 5-2 2 3 1 1-3 7-4-1 4-2 2 5-2 6-7 3-1v3l-1 2 11-9 4-3h2l-2 4-4 5 19-10 8-7 15-10 16-12 15-7 46-1 13-1 9-2 18-1 19-2 10-5 4 1-3 5-13 9-12 5-36 10-28 7-25 7-29 7-23 7-10 6-12 5-13 10-12 10-6 4h-8l-5 2-1 4-2-2-1-11-9-20-1-5v-9l2-14 1-15 8-25 1-14 3-4 7-8z" fill="#1A0A02"/>
<path transform="translate(1270,1129)" d="m0 0h5v2l3-2 4 1 1 1 8-1 6 2v-2l5 1 12 3 15 3 36 4 26 4 19 5 8 7 7 8 3 3v2l-3 1-15-8-8-7-3-1h-8l-21 4-52 6-6 1h-21l-19-1-27-4-21-6-25-8-30-6-5-2v-4l13 1h24l36-3h18l13-2z" fill="#190A02"/>
<path transform="translate(1281,1219)" d="m0 0 25 1 1 3 20 2 12 3 25 9 19 6 15 4 25 9 13 5 16 9 10 6 5 4v3l-3 1-22-7-24-5-12-1-37-1-9-3-27-2-4-1h-16l-15-4-38-1-31-4-11-2v-2l13 1 33 4h12l10-2 45-4 8-1 1-3-7 1-32 1-12 1-1-2 6-2 10-1h-15l-30 4h-26l1-3h13l45-5 20-1h26l-1-4h-34l-26 2-44 6h-17l1-3 26-2 38-5 30-2h23l-1-1-8-2h-22l-40 5-27 3-36 2v-3l9-1 35-2 15-2 39-5 5-1-8-1h-22l-47 5-15 1h-40v-2l49-2 31-3 14-2z" fill="#190A02"/>
<path transform="translate(672,1239)" d="m0 0h1l2 6 3 3 4 2-6 7-1 1v7l1 7-14 3-5 4v18l-8 6-5 8-2 5-10 9-5 8-2 10-1 1h-66l-10-1 1-3 8-1-16-8-5-2-5 1-22 5-70 10-4-1v-2l31-5 47-6 16-4 1-1h-9l-34 6-44 5-14 1v-3l74-9 15-3h3v-2l-11-3-36 6-48 7-5 1h-8l-1-2 30-5 56-8 9-2-11-4h-11l-40 7-35 6h-7v-2l21-4 44-8 15-3-2-1h-25l-37 7-15 3h-5l1-3 29-6 25-5h-16l-18 2-26 4-1-3 5-1-1-1h-13l-22 3h-12l-15-4-13-4-7-1h-41l-19 2-28 6-30 8-15 6-6 4-3 4-4 10h-3l-2-4-11 7-10 9-5 3 1-5 9-9 14-9 12-11 8-5 16-6 44-11 16-3 15-1h47l12 3 13 5 7 1 16-1 21-3 19-1h43l26 4 21 6 15 6 22 11 24 11 17 3 8 1 35 1 2 1 1-7 4-8 9-10 4-3 4-8 8-8h2v-17l4-6 12-4 1-2v-8l3-6-1-4-2-7z" fill="#221106"/>
<path transform="translate(921,693)" d="m0 0 5 1 19 11 3 2-2 5-11 13-8 11-3 1 2-5 7-10 10-13 1-2-5-2-4-1-38 38-11 9-15 13-6 7v6l14-12 18-14 11-10 9-11 8-8h2l-2 5-7 7-7 8-10 10-14 11-13 11-9 7 1 11 7-6 11-9 9-8 10-8 9-9 10-8h2l-2 4-13 12-11 10-14 11-10 9-7 7-2 11 30-23 12-11 16-15 3-3h2l-1 4-9 9-8 7-12 11-20 15-14 11-5 5-7 14 11-9 26-20 11-9 16-15 4-2-2 5-12 11-14 12-16 12-10 8-13 10-3 3-6 16-6 13 1 9 8 21 20-4 2 2-21 6 2 1 22-6 4 2-24 7h-3v4l9-3 15-2h14l1 2-23 2-16 4-2 5 22-4 9-1h15v2l-24 2-24 4v4l23-4 19-2h16v2l-31 3-23 4-8 1v2l39-6 8-1h13l-1 2-31 4-32 5-2 5-7 12-4 11-2 18h-2v-17l4-12 7-13 9-13 5-13v-11l-8-21-2-6v-7l11-27 4-13 7-13 4-7 2-10-2-15v-10l3-6 8-10 7-9 8-8 5-6 8-7 6-7 8-7 13-13-6-5z" fill="#1D0C02"/>
<path transform="translate(803,1290)" d="m0 0h3l-1 3-9 4-1 1 10-1 17-6h4v2l-13 5h15l25-8h6v2l-23 7-2 1h9l38-9h2l-1 3-36 9 9 5 4 1 18 1 66 2 27 2 35 1 20 2h28l11-1h119l34 4 31 3h26l21-1h23l2 1v2h-21l-21 1h-38l-51-6h-74l-23-1h-23l-21 2h-19l-18-2-50-2-35-2-45-1-25-1h-23l-32 2h-76l-43 2-18 1h-13v-2l20-2 33-2h80l26-1 26-2h11v-2l-5-1-11-2-13-2-74-3h-48l-31 2v-3l36-3h43l43 2z" fill="#1D0D02"/>
<path transform="translate(1453,1034)" d="m0 0 2 1 3 9 13 21 6 8 8 16 18 38 5 17 5 19 9 24 6 21 1 12-1 9 6-1 11 13 12 14 8 11 2 6-2 18-6 14-9 13-3 2 2 16 1 5 7 1h13l34-6 23-1h12l-2 2-32 3-24 5-22 4h-6v-3l-6-2-3-6-3-19 5-5 6-8 5-10v-4l-10 6-10 3h-5v-4l15-5 9-6 5-6v-10l-4-6-13-15-9-11-3-4-6 1-7 1-9-1-26-12-12-7-10-9-5-10v-8l4 1 14 12 10 8 16 10 15 8 5 4 2 1 1-10v-9l-4-18-12-36-6-24-9-20-13-28-10-14-10-19-7-14z" fill="#190A02"/>
<path transform="translate(997,374)" d="m0 0 4 2 8 7 17 13 19 11 20 13 17 8 6-1 34-1 1 3-34 1v2l37 1 2 2-22 1 6 2h23l2 1v2h-8l11 1 4 1 19 8 11 5 5 3 4 6 4 4h-16l-34-2-18-3-16-8-14-9-15-15-4-6-15-8-10-7-20-12-11-8-11-9-6-7z" fill="#1A0B02"/>
<path transform="translate(1228,99)" d="m0 0h44l60 5 10 1 13-5h5v2l-16 6-5 4h-3l-1-4-18-1-31-3-15-1h-42l-36 4-13 3-9 5-5 7-9 26-4 8-14 14-7 6-9 12-11 23-7 19-7 8-11 10-4 9-2 7-13 12-10 14-5 11-5 25-4 16-3 7h-3l3-12 1-6-13 3-27 3-9 4-6 7-2 8v7l3 5-1 4-11 8h-2v2l-10 8-1-3 12-10 4-3 1-17 2-9 6-8 8-6 16-3 20-2 12-3 5-25 3-10 9-14 9-10 5-4 7-16 8-7 5-4h2l2-4 6-16 7-16 7-13 10-13 21-21 14-36 5-5 14-7 17-3z" fill="#291708"/>
<path transform="translate(920,1300)" d="m0 0h27l41 2h56l88-1 17-1h30l43 7 30 3h97l18 2 36 2 11 4 2 2 36 3 13 2 41 19 9 4-4 2-12-5-16-8-17-8-10-2-22-2-54-1-2-2 1-1 31 1-1-2-6-2-44-3-9-1h-97l-29-3-43-7h-34l-19 1h-55l-32 1h-49l-37-2h-43l-30 2h-10v-2l5-1z" fill="#1D0D02"/>
<path transform="translate(829,915)" d="m0 0h3v2l-24 10-17 10-1 1-1 7-1 18v37l-3 9h-3l2-7v-37l-14 21-8 13-2 8 8-14 11-19 2-1-1 5-17 33-7 10-9 17-9 10-11 9-22 12-21 11-10 9-4 9v13l1 3-5 1 1-19 6-12 10-7 32-17 12-7 8-7 7-6 8-14 4-11 1-6v-14l-3-11v-6l5-5 13-18 8-10 5-6 11-8 14-8 15-6z" fill="#1E0E03"/>
<path transform="translate(137,1350)" d="m0 0h3l2 1-5 8-4 12-3 13-2 18h2l2 13 2 12 4 21 4 6 1 3h2v2l4 2 13 8 10 6 26 16 15 8 22 8 14 5 4 4 3 6h24l5 5 5 8 9 1-2 2 3 2h-11l-5-4-5-9-7-1-17 1-4-4-3-6v-2l-16-4-16-5-16-7-18-13-11-7-16-8-10-7-8-9-5-10-5-26-2-32 3-16 6-16z" fill="#291708"/>
<path transform="translate(1849,1317)" d="m0 0 15 3 16 6 7 5 13 3 1 4-1 12-3-1-1-9-2 7h-2v-11l-3-1-2 7h-1l-1 7h-1l-1-18h-3v16h-2l-1-18-5-1v17h-2v-19l-7-1-1 17h-1l-1-7v-12l-8-1-1 5h-1v-6l-16 3-17 5-30 12-14 4-7 1-30 1-14 2-16 6-22 10-4 1v-2l29-14 16-5 7-1 28-1 14-2 22-8 12-5h-39l-12 1h-19l2-2 15-2 53-3 13-1 4 1 16-4z" fill="#231205"/>
<path transform="translate(1367,98)" d="m0 0h21l16 4 8 5 7 10 9 15 14 21 7 9 5 4 16 5 23 6 1 2-8-1-25-5-5-2-13 1-26 6v-2l12-4 19-4-2-4-2-2h-5l-5 2-23 6-25 9h-3v-2l21-8 19-6 15-3 1-1-15 1-18 3-24 7h-4v-2l21-7 18-4 21-3 1-1-2-1h-10l-25 5-18 6-6 3-4-1 3-3 21-8 16-4 19-3-2-4-3-3v-3h-2l-6-11-7-12-7-6-10-4-11-2-24-1 1-2z" fill="#201004"/>
<path transform="translate(1291,650)" d="m0 0 8 6 10 10 13 9 3 2-7 7-7 8-8 8-2 3h-15l-4-4-7-11-1-5 3 1 7 10 2 1-8-15-6-15v-3h2l11 23 8 12 2 1-9-15-9-20v-4l3 1 7 20 8 12 2 4 4 1-7-11-1-2 4 2 6 6 2-1-7-7-9-13-7-13 1-3h2l8 17 9 10 3 1-7-7-6-10-3-7 1-4 7 9 11 11 8 4-11-9-7-8-6-8z" fill="#594124"/>
<path transform="translate(1531,1228)" d="m0 0 4 1 9 11 9 10 8 10 4 6 2 6-2 18-6 14-9 13-3 2 2 16 1 5 7 1h13l34-6 23-1h12l-2 2-32 3-24 5-22 4h-6v-3l-6-2-3-6-3-19 5-5 6-8 5-10v-4l-10 6-10 3h-5v-4l15-5 9-6 5-6v-10l-4-6-13-15-9-11-3-4-5-2 1-2z" fill="#221206"/>
<path transform="translate(846,840)" d="m0 0 3 1-6 15-5 11 1 9 8 21 20-4 2 2-21 6 2 1 22-6 4 2-24 7h-3v4l9-3 15-2h14l1 2-23 2-16 4-2 5 22-4 9-1h15v2l-24 2-24 4v4l23-4 19-2h16v2l-31 3-23 4-8 1v2l39-6 8-1h13l-1 2-31 4-32 5-2 5-7 12-4 11-2 18h-2v-17l4-12 7-13 9-13 5-13v-11l-8-21-2-6v-7z" fill="#200F02"/>
<path transform="translate(1228,99)" d="m0 0h44l60 5 10 1 13-5h5v2l-16 6-5 4h-3l-1-4-18-1-31-3-15-1h-42l-36 4-13 3-9 5-5 7-9 26-4 8-14 14-7 6-9 12-5 10-3-2 2-6 8-11 9-10 16-16 14-36 5-5 14-7 17-3z" fill="#2D1B0B"/>
<path transform="translate(1914,1337)" d="m0 0 7 1 16 17 4 4 2-3 10 6 4 6 3 11-1 8h-2v8l5 7v2h2l2 4-1 13-3 3-6-20-5-13-6-18-4-2-19-19h-7z" fill="#584023"/>
<path transform="translate(976,1267)" d="m0 0h61l50 1 26 1-1 3h-18l-58-1-31-1h-18l-14 1-57 1-64 3h-21v-3l65-3 25-1z" fill="#211002"/>
<path transform="translate(1435,360)" d="m0 0v3l-6 9-10 11-7 8-9 8-13 9-9 5h-8l2-4 11-10 13-10 11-7h-3l-12 7-3 3h-2l2-5 6-9 13-5 23-12z" fill="#594124"/>
<path transform="translate(1676,1364)" d="m0 0h2l-1 3-24 10h-3l2 10-4 2-16 2h-5l-2-4-2-1v5l-8-1-3-5-17 3-16 5-34 12-20 8h-2l1-3 19-8 43-15 13-4 36-6 18-4z" fill="#1E0E02"/>
<path transform="translate(800,858)" d="m0 0 1 4-7 24-1 4-1 22-4-1-1-1-1 2h-2l-1 4h-2l-2 5-1 4 4-2-1 5-3 5 1 1 5-2-3 5-13 16-7 9-7 11-3 4-1-1 1-10 9-19 8-15 6-11 11-15 2-3 3-19 9-25z" fill="#2D1A06"/>
<path transform="translate(1482,1257)" d="m0 0 5 1v2l15-3h7l14 5 10 6 2 2-1 4-5 1h-32l-11-6-6-6v-5z" fill="#190A02"/>
<path transform="translate(1453,1034)" d="m0 0 2 1 3 9 13 21 6 8 8 16 18 38 5 17 5 19 9 24 6 21 1 12-2 10-3-1v-16l-4-18-12-36-6-24-9-20-13-28-10-14-10-19-7-14z" fill="#271508"/>
<path transform="translate(1345,1281)" d="m0 0h82l19 5 10 4-1 3h-12l-23-3-18-3-48-1-8-1z" fill="#1B0B02"/>
<path transform="translate(1281,1219)" d="m0 0 25 1 1 3 13 1-2 3-24 2-46 6-46 3-3-1 1-2 9-1 35-2 15-2 39-5 5-1-8-1h-22l-47 5-15 1h-40v-2l49-2 31-3 14-2z" fill="#1C0C02"/>
<path transform="translate(1094,1316)" d="m0 0h89l34 4 31 3h26l21-1h23l2 1v2h-21l-21 1h-38l-51-6h-74l-23-1z" fill="#1D0D02"/>
<path transform="translate(921,693)" d="m0 0 5 1 19 11 3 2-2 5-11 13-8 11-3 1 2-5 7-10 10-13 1-2-5-2-4-1-38 38-7 5v-3l-11 10-2-1 41-41 6-5 3-5v-3l-6-5z" fill="#1D0D02"/>
<path transform="translate(829,915)" d="m0 0h3v2l-24 10-17 10-1 1-1 7-1 18v37l-3 9h-3l2-7v-41l1-2v-9h-2l2-5v-3l-13 17-13 19-3 8-1 5-2-3-1-10 5-5 13-18 8-10 5-6 11-8 14-8 15-6z" fill="#1E0E03"/>
<path transform="translate(1048,314)" d="m0 0h1l-1 12-4 16-3 7h-3l3-12 1-6-13 3-27 3-9 4-6 7-2 8v7l3 5-1 4-11 8h-2v2l-10 8-1-3 12-10 4-3 1-17 2-9 6-8 8-6 16-3 20-2 12-3 2-10z" fill="#291809"/>
<path transform="translate(920,1300)" d="m0 0h27l41 2h71v1l14 1v1l-32 1h-49l-37-2h-43l-30 2h-10v-2l5-1z" fill="#1D0D02"/>
<path transform="translate(1367,98)" d="m0 0h21l16 4 8 5 7 10 9 15 13 19v2l-4-1h-10l-25 5-18 6-6 3-4-1 3-3 21-8 16-4 19-3-2-4-3-3v-3h-2l-6-11-7-12-7-6-10-4-11-2-24-1 1-2z" fill="#251407"/>
<path transform="translate(137,1350)" d="m0 0h3l2 1-5 8-4 12-3 13-2 18h2l2 13 2 12 4 21 4 6 1 3h2v2l4 2 5 5h-2v2l-5-2-8-8-6-10-4-18-2-11-2-32 3-16 6-16z" fill="#301C09"/>
<path transform="translate(263,1368)" d="m0 0h4l-1 3-10 4-7 1v2l-1 1 8-1 1-3h3l1 3h8l2 2-15 6-14 8-14 6-11 4h-5l3-3 6-3h2v-5l4-3 4 1v2l15-6 2-2h-9l-10 3 2-4 13-9 15-6z" fill="#1D0D02"/>
<path transform="translate(1860,1455)" d="m0 0h3v3l-10 4-33 9-37 6-23 4-8 2h-4v-2l7-4 13-4 14-1 32-5 16-4 15-4 12-3z" fill="#251408"/>
<path transform="translate(1098,552)" d="m0 0h7l16 5 14 6 5 3 8-4 8-3 4 1-2 2-14 5h-2l3 3 16-6h3v2l-15 6h-2l-1 6 5-1 16-8 7-1-3 3-23 11-4-2-10-8-13-8-11-5-12-5z" fill="#231205"/>
<path transform="translate(1503,181)" d="m0 0h7l24 7 33 8 19 7 20 10 20 12 21 12 22 14 14 10 3 2-1 2-16-10-8-6-14-8-15-9-26-15-14-8-21-8-27-7-31-9-10-3z" fill="#2F1C0B"/>
<path transform="translate(1218,661)" d="m0 0 5 4 9 12 19 19 8 10 10 14v3l-5-2-8-7-11-11-6-8-8-11-13-21z" fill="#594124"/>
<path transform="translate(1360,650)" d="m0 0h2l1 7v13l-1 2 2 1-7 2v3h-2l-1 4-5 5-8 7-4 2-3-1 4-1 1-7h-2l2-5 11-14 10-13z" fill="#2B1703"/>
<path transform="translate(1377,947)" d="m0 0 2 1-8 5-14 7-2 3 6-2 13-7 2 1-7 6-19 9-5-2-6-5-1-6 7-5 15-3-1 4z" fill="#1D0D02"/>
<path transform="translate(972,722)" d="m0 0 3 1 9 32 5 16 7 16 20 40 9 15 1 3-4-2-11-17-24-49-8-24-5-20-2-7z" fill="#1E0E02"/>
<path transform="translate(1686,1484)" d="m0 0 10 2 4 2h-16v2l-23 7-23 6-27 8h-9l4-2 5-3 21-7 31-8 18-6z" fill="#241307"/>
<path transform="translate(1312,1239)" d="m0 0h26l1 5-19 1h-16v-1h-15l-30 4h-26l1-3h13l45-5z" fill="#1D0D02"/>
<path transform="translate(681,1115)" d="m0 0 2 2 2 7-10 10-2 4 6-4h2l-2 4-5 5-2 3-5 17-2 5v23l-4 1-1-10 1-15 8-25 1-14 3-4 7-8z" fill="#291707"/>
<path transform="translate(896,1269)" d="m0 0h72l-3 2-49 1-64 3h-21v-3z" fill="#1C0C02"/>
<path transform="translate(699,1270)" d="m0 0 65 1h49l-2 3-18 1h-15l-98-2 1-2z" fill="#1D0D02"/>
<path transform="translate(753,1019)" d="m0 0 2 4-10 18-7 7-11 9-22 12-21 11-10 9-4 9v13l1 3-5 1 1-19 6-12 10-7 32-17 12-7 8-7 7-6 8-14z" fill="#301D0B"/>
<path transform="translate(1333,1229)" d="m0 0h3l1 5-34 1-26 2-44 6h-17l1-3 26-2 38-5 30-2h23l-1-1z" fill="#1E0D02"/>
<path transform="translate(767,934)" d="m0 0h7l-2 6-1 4 3-3h2l-2 5-9 11-9 12-4 8-2-1 1-10 9-19z" fill="#211005"/>
<path transform="translate(910,1016)" d="m0 0v3l-16 10-20 13-17 11-19 12-18 13-14 12-4 1 6-7 12-10 17-12 15-10 24-15 23-15 8-5z" fill="#1D0C02"/>
<path transform="translate(672,1239)" d="m0 0h1l2 6 3 3 4 2-6 7-1 1v7l1 7-14 3-5 4v18l-8 6-3 4-5 2 2-5 8-8h2v-17l4-6 12-4 1-2v-8l3-6-1-4-2-7z" fill="#261508"/>
<path transform="translate(890,1015)" d="m0 0 2 2-16 10-18 11-19 12-16 11-18 13-17 13-4 3-3-1 8-7 14-10 13-10 20-14 24-15 28-17z" fill="#1D0D02"/>
<path transform="translate(1168,116)" d="m0 0v3l-4 9-7 20-4 8-14 14-7 6-9 12-5 10-3-2 2-6 8-11 9-10 16-16 7-18 5-14h3l2-4z" fill="#2F1B08"/>
<path transform="translate(1306,1221)" d="m0 0 1 2 13 1-2 3-24 2-46 6-46 3-3-1 1-2 9-1 35-2 15-2 39-5 5-1 3-1z" fill="#200F02"/>
<path transform="translate(988,749)" d="m0 0 2 3 9 26 9 20 8 14 14 22 9 13h-3l-6-7-15-23-8-13-8-17-11-28-1-6z" fill="#1E0E02"/>
<path transform="translate(963,650)" d="m0 0h1v66l-1 7-6 9-9 15-7 10-6 9h-2l2-6 10-16 9-14 6-12 1-39z" fill="#1D0C02"/>
<path transform="translate(1350,167)" d="m0 0 7 1 1 1-1 7-7 11-8 9-3 9-1 12-1 6h-4l-1-9 3-14 6-9 8-9 5-10v-2l-6 1-10 8-4 4 1-5 10-9z" fill="#1C0C02"/>
<path transform="translate(1400,876)" d="m0 0 2 1-5 9-16 20 5-4 10-13 5-6 1 3-5 9-9 10-5 6-4-1-3-5 2-5 3-4h2l1-4 3-4 5-3z" fill="#1F0F03"/>
<path transform="translate(888,923)" d="m0 0h13l-1 2-31 4-32 5-2 5-7 12-4 11-2 18h-2v-17l4-12 7-13 4-6 4-2 10-1 24-4z" fill="#1C0C02"/>
<path transform="translate(923,1025)" d="m0 0h2l-1 3-28 13-19 11-20 13-18 12-11 9-6 5h-3l2-4 13-10 17-12 20-13 19-11 30-15z" fill="#1C0C02"/>
<path transform="translate(897,517)" d="m0 0h2l-2 9-6 17-14 30-9 20-12 29-7 15-4 13h-1v-7l5-14 16-35 12-27 6-15 8-17z" fill="#3E2912"/>
<path transform="translate(955,1021)" d="m0 0h2l-2 4-10 8-7 8-3 6h-3l2-5-24 12-19 10-19 12-9 5v-3l32-20 42-21 13-13z" fill="#1B0B02"/>
<path transform="translate(1439,347)" d="m0 0 1 3-3 6-10 6-22 12-5 1 2-6 3-5 16-6 14-9z" fill="#594124"/>
<path transform="translate(1011,930)" d="m0 0h5l-4 4-12 6-11 8-1 2 11-1-3 3-4 2-3 2-4-1 2-4-6 3-4-1v-2l-9-1-2-1 1-3 15-8 8-3h5l-3 3-13 5-7 4 8 1h3l14-10z" fill="#1D0D02"/>
<path transform="translate(1254,1210)" d="m0 0h3l-1 3-14 2-64 6-18 2h-9l1-2 12-2 47-5z" fill="#1D0D02"/>
<path transform="translate(1808,1322)" d="m0 0h11l-3 4-3 1-34 1h-10l-12 1h-19l2-2 15-2z" fill="#321F0B"/>
<path transform="translate(931,1028)" d="m0 0h3l-1 3-19 10-25 16-13 8-16 10-11 9-5 2v-3l15-11 41-26 29-17z" fill="#1D0D02"/>
<path transform="translate(872,1009)" d="m0 0h2l-1 3-14 8-21 14-17 11-19 14-12 9-15 9-2-1 11-8 11-7 15-12 17-12 15-9 18-12z" fill="#1D0D02"/>
<path transform="translate(1426,252)" d="m0 0 3 1-5 3-24 7-18 7-11 7-8 7h-3l2-4 9-7 3-2-7 1-13 3 3-3 24-8 5 1 15-6z" fill="#1F0F02"/>
<path transform="translate(647,1401)" d="m0 0h11v2l-9 1-38 2-39 5-16 1v-2l10-2 29-4 27-2z" fill="#1C0C02"/>
<path transform="translate(526,1328)" d="m0 0 2 1-1 2-25 5-63 9-4-1v-2l31-5 47-6z" fill="#1C0C02"/>
<path transform="translate(518,1323)" d="m0 0 2 1-1 2-19 4-30 4-27 3-14 1v-3l74-9z" fill="#1D0D02"/>
<path transform="translate(864,999)" d="m0 0h2l-1 3-15 10-32 22-18 13-14 10-11 10-3 1 2-4 7-7 12-9 13-9 18-13 12-8 19-13z" fill="#1D0D02"/>
<path transform="translate(1640,292)" d="m0 0 3 1-8 4-19 8 15 1 1 1h12l3-1 7 2v1h-5v2l-12 1-25-4-18-3v-2h17l13-4 12-6z" fill="#36210C"/>
<path transform="translate(504,1316)" d="m0 0h4v2l-20 4-62 9-5 1h-8l-1-2 30-5 56-8z" fill="#1F0E02"/>
<path transform="translate(971,641)" d="m0 0h3v11l-4-2v64h-2l-1-17v-45l-2-6z" fill="#2C1804"/>
<path transform="translate(994,335)" d="m0 0 3 1-1 3-7 6-3 5-1 13 3 5-1 4-11 8h-2v2l-10 8-1-3 12-10 4-3 1-17 2-9 6-8z" fill="#271608"/>
<path transform="translate(1446,314)" d="m0 0 1 3-4 6-5 4-16 9-8 4-3-1 4-8 26-13z" fill="#594124"/>
<path transform="translate(1706,1327)" d="m0 0 31 2v1l-28 1-38 6h-18l-14-1 1-2h26z" fill="#341F0A"/>
<path transform="translate(1213,1203)" d="m0 0h16l-1 2-5 1-33 3-32 5-14 3-5-1 2-2 38-7z" fill="#1D0D02"/>
<path transform="translate(1535,290)" d="m0 0 5 2v2l10 1h12l13 2h26l-8 4v2h-10l-26-5h-8l-13 1-6-2v-1l7-1 1-1-3-2z" fill="#37220E"/>
<path transform="translate(1902,1335)" d="m0 0h20l11 9 9 11v5l-5-3-7-8-9-10-7-2 1 6v9l2 1h-5l2-1-5-15h-3l-2 4-2-4z" fill="#35200B"/>
<path transform="translate(976,1267)" d="m0 0h61v1h-10v2h-40l-22 1v-1l-44-1v-1z" fill="#231103"/>
<path transform="translate(1447,307)" d="m0 0 1 3-5 4-16 9-11 5v-3l5-8 17-8z" fill="#594124"/>
<path transform="translate(1760,1343)" d="m0 0h11v2l-5 1-30 1-14 2-16 6-22 10-4 1v-2l29-14 16-5 7-1z" fill="#1C0C02"/>
<path transform="translate(1604,213)" d="m0 0 5 2 24 14 22 13 24 16 7 5-1 2-16-10-8-6-14-8-15-9-26-15z" fill="#301D0C"/>
<path transform="translate(1443,326)" d="m0 0h2l-2 5-13 10-16 9-4 1 1-7 7-4 20-10z" fill="#594124"/>
<path transform="translate(925,722)" d="m0 0h2l-2 5-7 7-7 8-10 10-14 11-13 11-6 4 2-4 5-5 10-9 12-9 11-10 9-11z" fill="#1C0C02"/>
<path transform="translate(928,700)" d="m0 0 4 1-3 5-37 37-11 9-4 2 6-7 35-35 6-5z" fill="#584023"/>
<path transform="translate(1435,259)" d="m0 0h7l-2 2-43 11-17 7-11 7-2 2h-3l2-4 11-7 16-7 19-5z" fill="#1D0D02"/>
<path transform="translate(1312,1239)" d="m0 0h26l1 5-19 1h-16v-1l-11-1v-1h12v-2z" fill="#2C1804"/>
<path transform="translate(785,940)" d="m0 0h1l-1 7-11 16-10 14-7 10-2 1 2-8 7-11 8-11z" fill="#594124"/>
<path transform="translate(137,1350)" d="m0 0h3l2 1-5 8-4 12-3 13-3 24h-1l-1-21 3-16 6-16z" fill="#36220C"/>
<path transform="translate(1515,1176)" d="m0 0h3l8 24 3 15-1 10-1 5-3-1v-16l-4-18-5-15z" fill="#281608"/>
<path transform="translate(795,1567)" d="m0 0 3 2-1 1-28 5-25 5-21 3h-8l4-2 24-4 43-9z" fill="#211002"/>
<path transform="translate(800,858)" d="m0 0 1 4-7 24-1 4-1 22-4-1v-3h-3l2-5 3-19 9-25z" fill="#261507"/>
<path transform="translate(958,799)" d="m0 0 4 2 6 9 9 10 14 14 13 10 5 4v2l-4-1-13-10-12-11-13-14-8-11z" fill="#1F0E02"/>
<path transform="translate(1214,128)" d="m0 0h6v2l-2 1v14l2-5h2l-1 6-1 31-2-1v-24l-4-1-2-15v-7z" fill="#211002"/>
<path transform="translate(1429,906)" d="m0 0h2l-1 12-1 9v12l2 9 5 10 5 9-1 3-12-20-3-9v-17l2-17z" fill="#271507"/>
<path transform="translate(1189,1509)" d="m0 0 3 1-3 4-27 4-21 6-5 2h-3l1-4 28-8 12-2z" fill="#301C0B"/>
<path transform="translate(787,941)" d="m0 0h1v59l-3 9h-3l2-7v-41l1-2v-9h-2l2-5z" fill="#1B0C02"/>
<path transform="translate(1403,687)" d="m0 0 2 3 5 10 9 10 11 13 10 18v6l-2-2-3-8-12-17-11-12-6-8-5-10 1-2z" fill="#2D1A09"/>
<path transform="translate(1178,223)" d="m0 0 4 1 6 17 4 15v12l-3 10-8 11-4 2 2-5 6-8 4-11v-9l-7-25z" fill="#1F0E02"/>
<path transform="translate(1428,148)" d="m0 0h5l-3 3-28 6-18 6-6 3-4-1 3-3 21-8 16-4z" fill="#1C0C02"/>
<path transform="translate(255,1522)" d="m0 0h25l5 5 5 8 9 1-2 2 3 2h-11l-5-4-5-9-7-1-17 1 4-2-4-1z" fill="#34200E"/>
<path transform="translate(626,1414)" d="m0 0h7v2l-4 1-35 3-30 4h-7v-2l35-5 18-2z" fill="#1E0D02"/>
<path transform="translate(970,737)" d="m0 0h2l7 24 2 10v11l-2-1-5-24-3-10-2 2-4 12h-2l2-10z" fill="#1D0D02"/>
<path transform="translate(1586,1387)" d="m0 0 2 1-1 2-42 15-20 8h-2l1-3 19-8z" fill="#1F0E02"/>
<path transform="translate(780,973)" d="m0 0 1 3-18 35-7 10h-2l1-12 3 1 8-13 11-20z" fill="#1F0F04"/>
<path transform="translate(831,781)" d="m0 0h1l4 26v5l-3 1-2-5-5 5-8 17-1-4 8-18 4-5 1-6z" fill="#261406"/>
<path transform="translate(785,950)" d="m0 0h1v9l-5 5-19 28-3 2 1-6 11-17 10-14z" fill="#594124"/>
<path transform="translate(1385,118)" d="m0 0h3l-2 5-10 13 20-6 4 1v2l-23 6-8 5-2-1 6-9z" fill="#1D0C02"/>
<path transform="translate(669,1142)" d="m0 0 2 3v2l-1 6-5 15v23l-4 1-1-10 1-15z" fill="#2B1808"/>
<path transform="translate(1015,475)" d="m0 0 8 1 19 5 31 7 9 3v2l-10-2-44-10-12-4z" fill="#1E0D02"/>
<path transform="translate(1881,1328)" d="m0 0 5 2 4 2 10 2 1 4-1 12-3-1-1-9-2 7h-2v-11l-3-1-2 7h-1l-1 7h-1l-1-16z" fill="#2B1703"/>
<path transform="translate(1169,185)" d="m0 0 6 4 7 8 6 7 6 10 5 15 2 12h-3l-5-21-7-13-9-11-7-6z" fill="#1D0D02"/>
<path transform="translate(556,1347)" d="m0 0h16v2l-48 4h-11l-1-3z" fill="#221103"/>
<path transform="translate(1295,1322)" d="m0 0h23l2 1v2h-21l-21 1h-30v-2z" fill="#1D0D02"/>
<path transform="translate(1194,725)" d="m0 0 5 5 7 10 1 7h-3l-1-3 1-4h-2v10l-1 2-4-2-3-17z" fill="#3A240E"/>
<path transform="translate(1627,1334)" d="m0 0h12l-2 2-32 3-19 4h-3v-4l21-4z" fill="#37230F"/>
<path transform="translate(662,1271)" d="m0 0 4 1-1 2-6 3-2 2v18l-8 6-3 4-5 2 2-5 8-8h2v-17l4-6z" fill="#2F1D0D"/>
<path transform="translate(962,783)" d="m0 0h2l5 10 12 17 9 10 7 8 2 4-4-2-9-9-9-11-9-12-6-11z" fill="#1E0E02"/>
<path transform="translate(1181,705)" d="m0 0h3l2 3 4 10 2 13 1 4v8l-2-1-2-7-1-12-4 1-3-12z" fill="#2F1A06"/>
<path transform="translate(935,614)" d="m0 0 2 1-7 8-22 22-7 9-3-1 6-8 11-12 18-18z" fill="#1F0E02"/>
<path transform="translate(1178,1199)" d="m0 0h8v3l-25 2-24 3h-8v-2l19-3 16-2z" fill="#200F02"/>
<path transform="translate(845,999)" d="m0 0 3 1-8 5-11 6-15 10-14 10-5 3-3-1 15-11 18-12 17-10z" fill="#1D0D02"/>
<path transform="translate(1e3 464)" d="m0 0 19 1 29 4 14 3 1 3-7-1-23-4-33-4z" fill="#200F02"/>
<path transform="translate(442,1539)" d="m0 0h11v2l-51 7h-8l1-2 25-4z" fill="#1D0D02"/>
<path transform="translate(643,1307)" d="m0 0h2l-3 9-10 9-5 8-2 8-2-4-1-4 4-8 9-10 4-3 1-3z" fill="#271607"/>
<path transform="translate(1303,173)" d="m0 0 2 1-8 11-8 13-8 19-2 4h-3l2-6 9-21 8-12z" fill="#1B0C02"/>
<path transform="translate(1399,246)" d="m0 0 3 1-2 2-18 6-21 10-9 6-2 2v-4l10-7 16-8 18-7z" fill="#1D0D02"/>
<path transform="translate(701,1295)" d="m0 0h9v1l27 1v1l-41 1-31 2v-3z" fill="#231103"/>
<path transform="translate(940,624)" d="m0 0 2 1-5 6-8 7-9 8-7 8-5 5h-2l2-5 14-15 11-10z" fill="#1E0E02"/>
<path transform="translate(1417,115)" d="m0 0 3 4 10 16 11 16v2l-11-2 3-4-2-4-3-3v-3h-2l-6-11-3-6z" fill="#2B1909"/>
<path transform="translate(1889,1334)" d="m0 0 2 1 1 1v11h2l1-11 2 4 1 9v3l-10-1v-2h-2l-1-2v-10h2z" fill="#573F22"/>
<path transform="translate(1457,264)" d="m0 0h6l-1 2-45 12-13 3-4-1 8-3 34-9z" fill="#1E0D02"/>
<path transform="translate(452,1313)" d="m0 0 3 1-1 2-20 4-24 4h-7v-2l21-4z" fill="#1D0D02"/>
<path transform="translate(861,772)" d="m0 0 3 4h2 3l-1 3-3 2 1 11 7-6 2 1-4 6-4 4-3 13-3-1 2-12-2-15z" fill="#1F0E02"/>
<path transform="translate(1421,141)" d="m0 0 4 1-10 4-27 9-13 6h-4v-2l15-7 27-9z" fill="#1D0D02"/>
<path transform="translate(907,1301)" d="m0 0h39v1l-23 1-41 3h-10v-2l5-1z" fill="#1E0D02"/>
<path transform="translate(1501,1125)" d="m0 0 2 2 5 17 5 19 4 10v3l-3 1-6-18-6-24-3-9z" fill="#2E1B0B"/>
<path transform="translate(1959,1384)" d="m0 0h2l3 12 4 6v10l-2 9h-1v-13l-1-4h-2l-6-9v-10l2 1z" fill="#311D08"/>
<path transform="translate(1358,640)" d="m0 0h2l-1 8-4 8-1 5-8 10-3-3 2-6 3-6h3z" fill="#2B1703"/>
<path transform="translate(1649,1377)" d="m0 0 2 4 1 6-4 2h-9l-3-4 1-5 11-2z" fill="#36210B"/>
<path transform="translate(966,725)" d="m0 0h2l-2 6-13 23-7 12-3 1 2-6 14-26z" fill="#1D0C02"/>
<path transform="translate(915,694)" d="m0 0m-1 1m-2 1 2 1v2l-3 2-4 14-15 15-4 6h-4l2-4 11-12 7-7 4-13z" fill="#1E0D02"/>
<path transform="translate(1116,195)" d="m0 0h1l-1 7-8 20-3 8h-3l-1-2 7-20 6-12z" fill="#271608"/>
<path transform="translate(1048,314)" d="m0 0h1l-1 12-4 16-3 7h-3l3-12 1-6-5 1v-4l7-2 2-10z" fill="#211005"/>
<path transform="translate(1465,283)" d="m0 0h4l8 8h-14l-17-1v-2z" fill="#594124"/>
<path transform="translate(853,1290)" d="m0 0h6v2l-23 7-2 1 6 1v1l-5 1-4 1-13-2v-3l13-2z" fill="#211002"/>
<path transform="translate(1432,161)" d="m0 0h7l-1 2-24 6-28 10h-3v-2l21-8 19-6z" fill="#1D0D02"/>
<path transform="translate(425,1531)" d="m0 0h13l1 2-41 5h-8v-2l17-3z" fill="#1C0C02"/>
<path transform="translate(654,1388)" d="m0 0h6v2l-2 1-41 4h-14v-2z" fill="#1E0E02"/>
<path transform="translate(440,1305)" d="m0 0 3 1-1 2-28 6-10 2h-5l1-3 29-6z" fill="#1D0D02"/>
<path transform="translate(1305,131)" d="m0 0 1 3-11 13-9 15-3 6h-2l3-10 7-12 9-11z" fill="#1D0D02"/>
<path transform="translate(862,808)" d="m0 0 2 2v3l-5 5-7 14 6-5h2l-1 4-8 5-2 4h-2l1-8 8-16z" fill="#1B0B02"/>
<path transform="translate(1306,139)" d="m0 0h2l-1 4-8 9-8 13-8 14-3 2 1-5 12-22 9-11z" fill="#1B0C02"/>
<path transform="translate(1443,334)" d="m0 0v3l-3 5-17 11-14 7-3-1 5-5 10-4 17-11z" fill="#584023"/>
<path transform="translate(452,1546)" d="m0 0 3 1v3l-17 2-31 5v-2l15-4z" fill="#1E0D02"/>
<path transform="translate(1393,241)" d="m0 0 2 1v2l-41 17-6 2h-5l2-2 46-19z" fill="#1D0D02"/>
<path transform="translate(988,457)" d="m0 0h22l23 2 3 1v2l-47-2z" fill="#200F02"/>
<path transform="translate(1159,1193)" d="m0 0h7l-2 3-32 5h-9l1-3z" fill="#1D0D02"/>
<path transform="translate(829,915)" d="m0 0h3v2l-24 10-17 10-2 1 2-4 3-3 14-8 15-6z" fill="#1D0C02"/>
<path transform="translate(967,732)" d="m0 0 1 4-7 17-7 23h-2l1-9 8-24 5-10z" fill="#1D0D02"/>
<path transform="translate(1146,157)" d="m0 0 2 1-14 14-2 4-9 12-5 10-3-2 2-6 8-11 9-10z" fill="#301D0B"/>
<path transform="translate(884,933)" d="m0 0h5v2l-11 2-35 5-8 1v-2l11-3z" fill="#200F02"/>
<path transform="translate(1349,903)" d="m0 0 8 5 11 11-5-1-12-10 4 5 5 6v2l-4-2-9-9-2-1v-3h2v-2z" fill="#241305"/>
<path transform="translate(1333,1229)" d="m0 0h3l1 5-44 1v-3l18-1h23l-1-1z" fill="#2C1804"/>
<path transform="translate(1466,273)" d="m0 0 3 1-1 2-24 8-21 5h-2v-3l28-7z" fill="#1E0D02"/>
<path transform="translate(1305,155)" d="m0 0 2 1-13 17-7 11-6 13h-2l3-11 7-12 10-13z" fill="#1D0D02"/>
<path transform="translate(1294,736)" d="m0 0 3 1 4 8 9 15 6 17v3l-3-1-6-17-10-18-3-5z" fill="#211002"/>
<path transform="translate(1156,559)" d="m0 0 4 1-2 2-14 5h-2l3 3 16-6h3v2l-15 6h-2v3l-4-1-4-4 1-4 8-4z" fill="#1D0D02"/>
<path transform="translate(1355,100)" d="m0 0h5v2l-16 6-5 4h-3l-1-4-13-1v-2h20z" fill="#221205"/>
<path transform="translate(1409,872)" d="m0 0 4 1-6 17-6 10-7 8-3-1 12-17 4-11z" fill="#1C0C02"/>
<path transform="translate(1485,275)" d="m0 0h3v2l-18 5-9 3-12 3h-3v2h-8l10-5z" fill="#1E0E02"/>
<path transform="translate(1403,134)" d="m0 0h5l-1 2-19 6-19 7-5 3v-4l16-7 15-5z" fill="#1C0C02"/>
<path transform="translate(504,1316)" d="m0 0h4v2l-20 4-22 3h-9l1-2 20-3z" fill="#1D0D02"/>
<path transform="translate(1230,1233)" d="m0 0h18v2l-46 3-3-1 1-2 9-1z" fill="#251303"/>
<path transform="translate(951,710)" d="m0 0 3 1-6 9-12 19-2 3-3-1 4-8 11-17z" fill="#1D0D02"/>
<path transform="translate(1300,128)" d="m0 0 1 3-13 16-8 16-2-1 3-10 10-15 7-8z" fill="#1C0C02"/>
<path transform="translate(1094,1316)" d="m0 0 38 1v1l19 1v1h-36l-23-1z" fill="#221103"/>
<path transform="translate(1218,1251)" d="m0 0 13 1 33 4 1 3-15-1-32-5z" fill="#200F02"/>
<path transform="translate(830,907)" d="m0 0 1 3-19 8-22 11-1-3 15-8 20-9z" fill="#1E0E02"/>
<path transform="translate(1426,252)" d="m0 0 3 1-5 3-24 7-14 5-3-1 12-6 27-8z" fill="#1C0C02"/>
<path transform="translate(164,1327)" d="m0 0 2 1-3 3 1 2-11 7-10 9-5 3 1-5 9-9 14-9z" fill="#2A180A"/>
<path transform="translate(1205,598)" d="m0 0 3 3 8 21 7 16-2 2-12-25-4-12z" fill="#1D0C02"/>
<path transform="translate(504,1368)" d="m0 0h16l-1 2-23 2h-21v-2l5-1z" fill="#1C0C02"/>
<path transform="translate(980,1019)" d="m0 0h3v2l-16 10-22 16-3-1 18-14 13-9z" fill="#1D0D02"/>
<path transform="translate(955,662)" d="m0 0h1l1 6h1l1 41h-3l-1-2z" fill="#251303"/>
<path transform="translate(1128,597)" d="m0 0 4 1 11 11 8 10 10 14v2h-5l2-1-8-11-9-11-11-12z" fill="#1E0E02"/>
<path transform="translate(1200,102)" d="m0 0h7v1l-7 2-12 2-12 5-9 6-2 3h-2l2-5 5-5 13-6z" fill="#321E0B"/>
<path transform="translate(897,517)" d="m0 0h2l-2 9-6 17-10 21h-1l1-8 10-21z" fill="#39240F"/>
<path transform="translate(991,1022)" d="m0 0h5l-4 4-13 7-10 8-4 4h-2l2-4 10-10 13-8z" fill="#1D0D02"/>
<path transform="translate(1401,883)" d="m0 0 1 3-5 9-9 10-5 6h-3l2-5 9-10 8-11z" fill="#1C0C02"/>
<path transform="translate(538,1356)" d="m0 0h7v2l-19 2-26 1-1-3z" fill="#1F0E02"/>
<path transform="translate(1107,587)" d="m0 0 7 4 10 9 8 10 9 13-3 1-14-20-12-11-5-4z" fill="#1D0D02"/>
<path transform="translate(671,1314)" d="m0 0h21l6 1v1l-34 2h-13v-2z" fill="#1E0D02"/>
<path transform="translate(956,713)" d="m0 0 1 3-10 16-8 13h-3l8-16 10-14z" fill="#1D0D02"/>
<path transform="translate(1085,546)" d="m0 0h32l5 1v2h-36l-2-2z" fill="#1F0E02"/>
<path transform="translate(1055,495)" d="m0 0 14 1 27 3 5 2-1 2-24-3-21-3z" fill="#231103"/>
<path transform="translate(1319,351)" d="m0 0 2 1-4 12-9 16-5 6h-2l1-4 10-16 5-12z" fill="#1C0C02"/>
<path transform="translate(1577,1340)" d="m0 0h7l-1 3-13 3-11 2-5-1 1-2h3v-2l10-1z" fill="#221205"/>
<path transform="translate(1280,743)" d="m0 0 4 2 8 19 5 15v5h-2l-9-27-6-12z" fill="#1F0E02"/>
<path transform="translate(1305,739)" d="m0 0h3l9 19 7 19v2h-3l-7-20-8-16z" fill="#2A1703"/>
<path transform="translate(1293,744)" d="m0 0 2 3 6 15 9 19v2h-3l-13-28-2-9z" fill="#1F0F02"/>
<path transform="translate(1353,614)" d="m0 0h2l-1 9-4 15-6 15h-3l8-24z" fill="#1D0D02"/>
<path transform="translate(852,1271)" d="m0 0h10v1l11 1v1l-21 1h-21v-3z" fill="#221002"/>
<path transform="translate(1020,934)" d="m0 0h5l-3 5-12 8-6 3 2-6 5-5z" fill="#1F0F03"/>
<path transform="translate(605,1426)" d="m0 0h2v2l-21 4-21 3h-6l-1-2z" fill="#1F0E02"/>
<path transform="translate(1477,1141)" d="m0 0h1v6l-8 11-9 8-5 1 6-7 8-8z" fill="#1C0C02"/>
<path transform="translate(710,1295)" d="m0 0h34l15 2v1h-22l-29-1z" fill="#1B0B02"/>
<path transform="translate(1571,297)" d="m0 0h30l-8 4v2h-10l-10-2z" fill="#2F1B07"/>
<path transform="translate(625,1581)" d="m0 0h17v1l-30 3h-26v-1l19-2z" fill="#2C1804"/>
<path transform="translate(1311,503)" d="m0 0 6 2 16 8 15 7v2l-5-1-20-9-9-5z" fill="#1C0C02"/>
<path transform="translate(154,1465)" d="m0 0 11 6 10 6v2l-6-1-16-8-1-4z" fill="#281607"/>
<path transform="translate(778,974)" d="m0 0v3l-12 22-6 9-1-2 3-9 13-20z" fill="#594124"/>
<path transform="translate(988,749)" d="m0 0 2 3 9 26 2 4-1 3-3-3-9-23-1-6z" fill="#2C1804"/>
<path transform="translate(1088,538)" d="m0 0 16 1 8 3-1 2-12-2h-15l-9 2v-3l5-2z" fill="#1C0C02"/>
<path transform="translate(935,1312)" d="m0 0 18 1 17 1-1 3-20-1-23-1v-1l9-1z" fill="#210F02"/>
<path transform="translate(1e3 1023)" d="m0 0h5v2l-18 10-8 7-2-1 1-3h2v-2l13-9z" fill="#1D0D02"/>
<path transform="translate(1356,627)" d="m0 0h2l-1 9-7 20h-2l-1 4-3 1 2-6 5-13z" fill="#1D0D02"/>
<path transform="translate(1285,432)" d="m0 0h8l6 1-5 5-8 6h-2z" fill="#594124"/>
<path transform="translate(1293,334)" d="m0 0 4 1v7l-3 12-3 5-4-1v-2l3-2 1-4 1-14z" fill="#594124"/>
<path transform="translate(1313,740)" d="m0 0 4 2 8 14 6 18v2l-3-1-7-20-8-13z" fill="#200F02"/>
<path transform="translate(1300,336)" d="m0 0 3 2v9l-3 11-2 2h-3l2-9 2-14z" fill="#594124"/>
<path transform="translate(1456,168)" d="m0 0 10 2 27 7 1 2-8-1-25-5-5-2z" fill="#2D1A0A"/>
<path transform="translate(806,1039)" d="m0 0m-1 1v3l-16 12-11 9-5 4v-3l8-8 12-9z" fill="#1D0D02"/>
<path transform="translate(958,623)" d="m0 0h3l-2 4-7 7-10 13-3 1 1-5 4-6 13-12z" fill="#594124"/>
<path transform="translate(1258,701)" d="m0 0 4 2 11 12 7 10v2l-5-1-6-9-10-14z" fill="#594124"/>
<path transform="translate(916,625)" d="m0 0 3 1-7 8-8 8-5 6h-2l1-4 9-11z" fill="#1D0D02"/>
<path transform="translate(1410,380)" d="m0 0v3l-14 9-11 9v-3l2-4 11-8z" fill="#1D0D02"/>
<path transform="translate(448,1554)" d="m0 0h9v3l-21 3-5 1h-8l2-2z" fill="#1D0D02"/>
<path transform="translate(129,1372)" d="m0 0 2 1-1 11-3 24h-1l-1-21 2-12h2z" fill="#341F0B"/>
<path transform="translate(1281,1219)" d="m0 0 25 1v3l-38-1 1-2z" fill="#1C0C02"/>
<path transform="translate(1107,529)" d="m0 0 36 3v3l-21-1-16-3z" fill="#211002"/>
<path transform="translate(1503,181)" d="m0 0h7l24 7 17 4-4 2-11-2-29-9z" fill="#36220F"/>
<path transform="translate(920,1300)" d="m0 0h27l16 1-1 3-39-1z" fill="#261303"/>
<path transform="translate(1069,506)" d="m0 0h16l19 3 3 1v3l-24-4-11-1z" fill="#200F02"/>
<path transform="translate(667,1330)" d="m0 0h7v2l-16 4-12 6h-5v-2l18-8z" fill="#1D0D02"/>
<path transform="translate(1199,297)" d="m0 0 2 1 4 19 3 9v3l-3-1-4-11-2-10z" fill="#1C0C02"/>
<path transform="translate(1547,1331)" d="m0 0 2 4 1 5 18 2v1h-10v2l-3 2-2 1v-3l-6-2-3-6 1-3 1 2z" fill="#321F0D"/>
<path transform="translate(895,1058)" d="m0 0m-2 1 2 1v2l-20 12-11 7-2-2 15-10z" fill="#1E0E02"/>
<path transform="translate(1243,1238)" d="m0 0 4 1-1 2-13 2h-17l1-3z" fill="#200F02"/>
<path transform="translate(1486,1098)" d="m0 0 4 2 11 23-1 4-2-1-12-26z" fill="#291708"/>
<path transform="translate(956,822)" d="m0 0 3 3 7 12 9 10 1 3-4-1-8-9-7-11z" fill="#200F02"/>
<path transform="translate(1307,1338)" d="m0 0 2 2-7 6-7 2-1 3-2-1 2-3-10 5-2-1 8-6 4-2 9-2z" fill="#221105"/>
<path transform="translate(873,904)" d="m0 0h14l1 2-23 2-15 3-2-1v-5l1 4 9-3z" fill="#221103"/>
<path transform="translate(918,777)" d="m0 0h2l-2 5-12 11-13 11-2-1 4-5 8-7 12-11z" fill="#1C0C02"/>
<path transform="translate(1327,519)" d="m0 0 5 3 10 7 16 7 1 2-7-1-16-8-8-6z" fill="#1E0D02"/>
<path transform="translate(1194,986)" d="m0 0 6 1 19 9 3 4-5-1-23-11z" fill="#1E0D02"/>
<path transform="translate(1035,829)" d="m0 0h2l9 16 9 11v2l-4-1-11-15-5-11z" fill="#1F0E02"/>
<path transform="translate(1086,514)" d="m0 0 26 3 5 3-4 1-23-3-4-2z" fill="#1E0E02"/>
<path transform="translate(1216,319)" d="m0 0 3 1 6 17 5 11-4-2-5-8-5-16z" fill="#1F0E02"/>
<path transform="translate(795,1567)" d="m0 0 3 2-1 1-28 5-5 1 1-3 16-4z" fill="#1C0C02"/>
<path transform="translate(963,650)" d="m0 0h1v39l-1 9-2 1v-20z" fill="#2B1703"/>
<path transform="translate(893,571)" d="m0 0 5 1 9 7 6 6 9 2v2h-8l-8-6-9-8-4-2z" fill="#200F02"/>
<path transform="translate(1374,236)" d="m0 0 3 1-15 8-16 8-5 3-2-1 9-7z" fill="#1C0C02"/>
<path transform="translate(753,1296)" d="m0 0 29 1 1 3-39-1v-1l9-1z" fill="#231103"/>
<path transform="translate(783,1124)" d="m0 0h6v2l-23 7-6 3 2-5 13-5z" fill="#1D0D02"/>
<path transform="translate(1255,674)" d="m0 0h3l7 9 8 7 7 10v3h-3l-6-10-11-12-5-5z" fill="#594124"/>
<path transform="translate(1650,240)" d="m0 0 5 2 24 16 7 5-1 2-16-10-8-6-10-6z" fill="#321F0C"/>
<path transform="translate(699,1270)" d="m0 0h15v3h-34l1-2z" fill="#221002"/>
<path transform="translate(1294,1245)" d="m0 0h24l15 1v1l-32 1-12 1-1-2z" fill="#1F0E02"/>
<path transform="translate(753,1019)" d="m0 0 2 4-10 18-7 7-5 3-2-2 9-7 7-10z" fill="#37230F"/>
<path transform="translate(872,896)" d="m0 0 4 2-24 7h-4v5l2 1-4 1 1-9z" fill="#1D0D02"/>
<path transform="translate(858,612)" d="m0 0 1 2-8 19-4 9-2 8h-1v-7l5-14 8-16z" fill="#301D0A"/>
<path transform="translate(663,1325)" d="m0 0h7l-1 2-13 4-15 8-2-1 4-4 16-8z" fill="#1D0D02"/>
<path transform="translate(1479,1148)" d="m0 0h2l-1 5-9 13-4 4h-2l1-4 11-15z" fill="#1C0C02"/>
<path transform="translate(887,918)" d="m0 0h16v2l-33 3v-2l-2-1z" fill="#1D0D02"/>
<path transform="translate(958,815)" d="m0 0 4 4 10 14 8 8-2 2-2-1v-2l-4-2-10-13-4-7z" fill="#1D0D02"/>
<path transform="translate(647,1401)" d="m0 0h11v2l-9 1-28 1 1-3z" fill="#211002"/>
<path transform="translate(1162,1316)" d="m0 0h21l16 2 2 2-36-1z" fill="#231103"/>
<path transform="translate(683,1104)" d="m0 0h2l-2 4-11 9-3 7-2-3v-6l6-4z" fill="#211004"/>
<path transform="translate(1362,943)" d="m0 0h7l-1 2-18 2h-10l-8-1 1-2z" fill="#2C1804"/>
<path transform="translate(175,1478)" d="m0 0 5 2 16 10-4 2-5-2-12-9-2-2z" fill="#311D0A"/>
<path transform="translate(1322,742)" d="m0 0 3 1 9 14 3 8v6h-2l-5-14-6-10z" fill="#1F0E02"/>
<path transform="translate(929,922)" d="m0 0h6l-1 2-10 4-15 8-3-1 8-6z" fill="#1D0D02"/>
<path transform="translate(1252,679)" d="m0 0 4 2 9 8 8 10v2l3 1-3 1-5-4-7-9-9-10z" fill="#594124"/>
<path transform="translate(1224,326)" d="m0 0 4 4 7 17 3 5-1 3-5-6-8-20z" fill="#1C0C02"/>
<path transform="translate(1447,985)" d="m0 0 3 3 5 12 1 9-1 11-2 1v-17l-3-7-3-9z" fill="#3C260F"/>
<path transform="translate(626,1414)" d="m0 0h7v2l-4 1-30 2 1-3z" fill="#1E0E02"/>
<path transform="translate(1207,309)" d="m0 0h2l8 22v5l-4-4-6-18z" fill="#1D0D02"/>
<path transform="translate(672,1258)" d="m0 0 2 4 2 10-11 1 1-3 4-2v-9z" fill="#251407"/>
<path transform="translate(681,1115)" d="m0 0 2 2 1 5-9 7h-2l1-7z" fill="#594124"/>
<path transform="translate(1369,232)" d="m0 0h5l-3 3-23 7-8 3v-3z" fill="#1F0E02"/>
<path transform="translate(454,1563)" d="m0 0h9l1 3 4 2v2l-10-3-15-1-3-2z" fill="#1F0E02"/>
<path transform="translate(1482,1153)" d="m0 0 3 1-4 9-7 11-3-2z" fill="#1D0D02"/>
<path transform="translate(948,826)" d="m0 0h2l6 10 10 12-3 1-7-7-7-10z" fill="#1E0E02"/>
<path transform="translate(1181,573)" d="m0 0h4v2l-20 8-8 2v-2z" fill="#1D0D02"/>
<path transform="translate(1051,484)" d="m0 0 10 1 20 5 1 3-10-2-21-5z" fill="#1C0C02"/>
<path transform="translate(1408,815)" d="m0 0h1l2 16 4 12v2l-3-1-3-5-2-9v-9z" fill="#3C260F"/>
<path transform="translate(970,737)" d="m0 0h2l2 8h-2l-1 2-2 2-4 12h-2l2-10z" fill="#200F02"/>
<path transform="translate(1347,134)" d="m0 0v3l-14 9-8 7-1-3 7-7z" fill="#1D0D02"/>
<path transform="translate(1902,1335)" d="m0 0 14 1-2 1 1 6v9l2 1h-5l2-1-5-15h-3l-2 4-2-4z" fill="#2C1804"/>
<path transform="translate(1640,1334)" d="m0 0h32l-1 3h-18l-14-1z" fill="#39250F"/>
<path transform="translate(1201,541)" d="m0 0 4 4 5 13h1v6l-3 1-6-18z" fill="#1E0E02"/>
<path transform="translate(1391,144)" d="m0 0v3l-20 8-3 1 1-4 12-5z" fill="#1E0E02"/>
<path transform="translate(930,586)" d="m0 0 7 1 6 4 8 8v2l-4-1-8-8-9-5zm22 10 2 1-3 2z" fill="#1F0E02"/>
<path transform="translate(1347,126)" d="m0 0h2l-2 4-15 10-4 2 1-4 11-8z" fill="#1D0D02"/>
<path transform="translate(1217,100)" d="m0 0h9v1l-8 1-1 2-24 3h-5l4-2 8-1 9-3z" fill="#35210E"/>
<path transform="translate(1189,1509)" d="m0 0 3 1-3 4-7 1h-14l2-2z" fill="#291708"/>
<path transform="translate(1054,291)" d="m0 0 1 2-5 21-3 1 1-9 3-13z" fill="#291708"/>
<path transform="translate(1371,256)" d="m0 0 2 1v2l-15 8-6 4-2 2v-4l10-7z" fill="#1F0E02"/>
<path transform="translate(664,1339)" d="m0 0h8l-1 2-21 6-4 1 1-3 9-4z" fill="#1D0C02"/>
<path transform="translate(1508,1152)" d="m0 0 2 1 6 18 1 5-3 1-6-18z" fill="#2E1B0A"/>
<path transform="translate(1345,1027)" d="m0 0 4 1 11 7 10 9-2 1-14-10-9-7z" fill="#594124"/>
<path transform="translate(933,637)" d="m0 0h2l-1 4-12 13h-3l2-4 11-12z" fill="#1D0C02"/>
<path transform="translate(1170,568)" d="m0 0 4 1-17 9-9 3 5-5 14-7z" fill="#1C0C02"/>
<path transform="translate(1094,522)" d="m0 0h12l16 2v2l-22-1-6-2z" fill="#200F02"/>
<path transform="translate(1337,407)" d="m0 0h2l-1 5-9 13-3 3-4-1 9-10z" fill="#594124"/>
<path transform="translate(780,973)" d="m0 0 1 3-11 21h-3l2-6 10-17z" fill="#200F02"/>
<path transform="translate(828,804)" d="m0 0 1 2h2v2l-5 5-8 17-1-4 8-18z" fill="#35210E"/>
<path transform="translate(410,1525)" d="m0 0h10l1 3-23 1 1-3z" fill="#211002"/>
<path transform="translate(1745,1326)" d="m0 0h21l-2 2-7 1h-19l2-2z" fill="#2C1908"/>
<path transform="translate(886,792)" d="m0 0m-1 1m-2 1 2 1v2l-16 12-5 3 1-4 17-13z" fill="#1E0E02"/>
<path transform="translate(1881,1328)" d="m0 0 5 2 4 2 7 1v1l-8 1-2 7h-1l-1 7h-1l-1-16z" fill="#341F0A"/>
<path transform="translate(906,626)" d="m0 0 1 3-12 14h-2l1-5 10-11z" fill="#1D0D02"/>
<path transform="translate(853,1290)" d="m0 0h6v2l-24 7 2-4z" fill="#1D0D02"/>
<path transform="translate(1071,571)" d="m0 0 6 1 10 8 5 5v2l-4-2-10-8-7-5z" fill="#1C0C02"/>
<path transform="translate(1034,569)" d="m0 0 8 1 14 4 1 3-7-1-16-5z" fill="#1D0D02"/>
<path transform="translate(1308,454)" d="m0 0 4 1-5 4-16 8 1-4z" fill="#1E0D02"/>
<path transform="translate(1714,311)" d="m0 0h2l-1 3-7 4-9 2h-11v-2l16-2 4-2h3v-2z" fill="#3C2610"/>
<path transform="translate(480,1377)" d="m0 0h10l-1 3-22 1v-3z" fill="#1F0E02"/>
<path transform="translate(1486,1159)" d="m0 0h2l-1 5-7 9-2 3h-3l2-5 6-8z" fill="#1D0C02"/>
<path transform="translate(763,1124)" d="m0 0h5l-3 3-15 8-5 3 1-4 15-9z" fill="#1E0E02"/>
<path transform="translate(1444,169)" d="m0 0h4v2l-31 7v-2l12-4z" fill="#1E0E02"/>
<path transform="translate(1027,1268)" d="m0 0h23l13 1v1l-27 1-9-1z" fill="#190A02"/>
<path transform="translate(1281,1233)" d="m0 0h17v1l-21 3h-8l1-2z" fill="#1D0D02"/>
<path transform="translate(670,1092)" d="m0 0 1 4-1 2v13l1 3-5 1 1-19 2-3z" fill="#34200C"/>
<path transform="translate(934,929)" d="m0 0h5l-3 3-10 5-5 3-4-1 9-6z" fill="#1C0C02"/>
<path transform="translate(1683,1331)" d="m0 0h9l-2 1v2l-11 2h-8l2-3z" fill="#301D0A"/>
<path transform="translate(1379,1321)" d="m0 0 27 1-1 2h-25l-2-2z" fill="#1F0E02"/>
<path transform="translate(1067,851)" d="m0 0 4 1 9 10 5 4v2l-5-2-7-6-6-7z" fill="#1F0E02"/>
<path transform="translate(1657,310)" d="m0 0 18 5 12 2v1h-13l-17-5z" fill="#39240E"/>
<path transform="translate(1265,248)" d="m0 0 1 3-14 10-6 4 2-4 5-5z" fill="#1E0E02"/>
<path transform="translate(263,1368)" d="m0 0h4l-1 3-10 4-6 1 2-4z" fill="#1E0D02"/>
<path transform="translate(662,1271)" d="m0 0 4 1-1 2-6 3-2 2v16l-2-3-1-15 5-5z" fill="#2D1A08"/>
<path transform="translate(1631,1381)" d="m0 0 3 3 2 6-9 1-3-6 1-2h3v4h3l-1-5z" fill="#594124"/>
<path transform="translate(249,1373)" d="m0 0 2 1-2 4-4 3h-6v-3zm-13 7 2 1-3 3-2-1z" fill="#241203"/>
<path transform="translate(962,1302)" d="m0 0h26v1h-6v2h-11l-9-1z" fill="#200F02"/>
<path transform="translate(1334,744)" d="m0 0 4 2 7 21h-3l-7-19z" fill="#1C0C02"/>
<path transform="translate(442,1539)" d="m0 0h11v2l-14 2h-10l1-2z" fill="#1B0C02"/>
<path transform="translate(556,1347)" d="m0 0h16v2l-9 1h-16l1-2z" fill="#1B0C02"/>
<path transform="translate(455,1323)" d="m0 0 3 1 1 2-22 3v-2l-2-1z" fill="#1F0F02"/>
<path transform="translate(1117,426)" d="m0 0h5l1 3h-26l1-2z" fill="#1E0E02"/>
<path transform="translate(1535,290)" d="m0 0 5 2v2l5 1-2 4h-7l-6-2v-1l7-1 1-1-3-2z" fill="#2D1A06"/>
<path transform="translate(1152,153)" d="m0 0 1 3-14 14-4 3-2-1 14-14z" fill="#1C0C02"/>
<path transform="translate(1034,931)" d="m0 0h3v2l-13 7-8 5 1-4 13-8z" fill="#1D0D02"/>
<path transform="translate(1623,287)" d="m0 0h5l-3 3-15 6-8 1 3-2z" fill="#2C1804"/>
<path transform="translate(1377,270)" d="m0 0 2 1-13 10-3 3h-3l2-4 9-7z" fill="#1C0C02"/>
<path transform="translate(1309,103)" d="m0 0h14l9 1v1h-10v2l-13-1z" fill="#362210"/>
<path transform="translate(1616,1383)" d="m0 0h5l2 3v5h-5l-4-5v-2z" fill="#594124"/>
<path transform="translate(669,1142)" d="m0 0 2 3v2l-1 6-2 7-4 1 2-9z" fill="#2F1C0A"/>
<path transform="translate(1e3 1028)" d="m0 0h2l1 5-10 8-4 2 3-5h2v-2h2l-1-4z" fill="#2D1905"/>
<path transform="translate(969,937)" d="m0 0h6l-1 2-14 5-3 2-4-1 4-3z" fill="#1E0E02"/>
<path transform="translate(1096,860)" d="m0 0 4 1 2 1v2l4 2 9 7-3 1-9-6-7-7z" fill="#1F0E02"/>
<path transform="translate(1457,264)" d="m0 0h6l-1 2-19 5-4-1 6-3z" fill="#1C0C02"/>
<path transform="translate(1200,102)" d="m0 0h7v1l-7 2-12 2-1 1h-9l3-2 11-3z" fill="#372411"/>
<path transform="translate(730,1050)" d="m0 0h3l-1 3-8 6-9 4-2-2 11-6z" fill="#2C1A0A"/>
<path transform="translate(499,1358)" d="m0 0h24l-3 2-20 1z" fill="#1D0C02"/>
<path transform="translate(946,932)" d="m0 0h4l-1 3-13 3-5 2-4-1 9-4z" fill="#1D0D02"/>
<path transform="translate(862,896)" d="m0 0h5v2l-17 5-3-1 1-2z" fill="#594124"/>
<path transform="translate(1033,807)" d="m0 0 5 4 7 14-1 3-3-3-8-16z" fill="#594124"/>
<path transform="translate(1063,570)" d="m0 0 6 2 11 10-3 1-13-10-2-2z" fill="#1C0C02"/>
<path transform="translate(1306,1221)" d="m0 0 1 2 13 1-2 3h-14l-6-1v-1l5-1 3-1z" fill="#2C1804"/>
<path transform="translate(1489,1164)" d="m0 0h2l-1 6-8 9-3-1 6-8z" fill="#1D0D02"/>
<path transform="translate(931,1028)" d="m0 0h3l-1 3-17 9-1-3z" fill="#200F02"/>
<path transform="translate(1640,292)" d="m0 0 3 1-8 4-17 7-2-1 14-7z" fill="#2C1804"/>
<path transform="translate(1355,100)" d="m0 0h5v2l-16 6-2 1v-4z" fill="#2B1909"/>
<path transform="translate(512,1350)" d="m0 0h20l-1 2-7 1h-11z" fill="#1D0D02"/>
<path transform="translate(1396,887)" d="m0 0v3l-9 12-7 6 2-5 9-10z" fill="#594124"/>
<path transform="translate(940,832)" d="m0 0 4 2 9 10v2l-4-1-9-10z" fill="#1F0F02"/>
<path transform="translate(1064,831)" d="m0 0 6 2 5 4 2 5-5-2h-3l-5-8z" fill="#2C1804"/>
<path transform="translate(1581,204)" d="m0 0h7l16 8-1 3-16-8-6-2z" fill="#2D1A09"/>
<path transform="translate(1226,100)" d="m0 0h18v1l-15 2h-12l1-2z" fill="#1C0C02"/>
<path transform="translate(1330,1337)" d="m0 0 1 3-9 6-4 4-3-1h2l1-4 10-7z" fill="#291708"/>
<path transform="translate(1184,1301)" d="m0 0 19 3-1 3-21-3z" fill="#1F0E02"/>
<path transform="translate(1200,1235)" d="m0 0h25l-4 2-21 1z" fill="#1F0E02"/>
<path transform="translate(1208,985)" d="m0 0 7 1 9 7v2l-5-2-11-6z" fill="#1E0E02"/>
<path transform="translate(927,689)" d="m0 0 9 3 10 5v2l-5-1-15-7z" fill="#1F0F02"/>
<path transform="translate(1284,204)" d="m0 0h2l-3 9-4 8h-3l2-6 5-10z" fill="#1E0D02"/>
<path transform="translate(526,1328)" d="m0 0 2 1-1 2-20 4-1-3z" fill="#1E0D02"/>
<path transform="translate(958,935)" d="m0 0 3 1v2l-9 3-3 2h-4l2-4 7-3z" fill="#1C0C02"/>
<path transform="translate(1358,640)" d="m0 0h2l-1 8-4 8h-2l1-7z" fill="#1E0E02"/>
<path transform="translate(1287,334)" d="m0 0 3 1-1 14h-3v-14z" fill="#594124"/>
<path transform="translate(1386,152)" d="m0 0 2 1-4 4-9 4h-4v-2z" fill="#1B0B02"/>
<path transform="translate(822,1310)" d="m0 0h6v1l5 1v1l-20 1-3-3z" fill="#211002"/>
<path transform="translate(817,1044)" d="m0 0m-1 1 1 3-16 12-1-2 5-5z" fill="#1C0C02"/>
<path transform="translate(1429,945)" d="m0 0 2 3 5 10 5 9-1 3-9-15-2-4z" fill="#34200E"/>
<path transform="translate(1401,903)" d="m0 0 1 3-9 10-3 3-3-1 7-7z" fill="#1C0C02"/>
<path transform="translate(1339,677)" d="m0 0 2 1-6 7-7 6h-2l2-4 5-6z" fill="#2C1804"/>
<path transform="translate(1571,286)" d="m0 0h13v1l-16 3-8 4-3-1 8-5z" fill="#1F0E02"/>
<path transform="translate(832,1034)" d="m0 0 3 1-5 4-12 8-1-2 4-4z" fill="#1F0E02"/>
<path transform="translate(962,698)" d="m0 0h1l1 16-2 4h-1v-19z" fill="#211002"/>
<path transform="translate(1319,351)" d="m0 0 2 1-4 12-3 4h-2l3-9z" fill="#1F0E02"/>
<path transform="translate(1144,1519)" d="m0 0h3v3l-11 4h-3l1-4z" fill="#2D1A0A"/>
<path transform="translate(864,999)" d="m0 0h2l-1 3-15 10-1-3z" fill="#1F0E02"/>
<path transform="translate(903,778)" d="m0 0m-1 1m-1 1m-1 1m-1 1m-2 1 2 1-1 3-12 9-2-1 5-5z" fill="#1B0C02"/>
<path transform="translate(1323,758)" d="m0 0 3 1 5 15v2l-3-1-5-15z" fill="#221103"/>
<path transform="translate(962,635)" d="m0 0 2 1-12 13-6 5 2-4 9-10z" fill="#594124"/>
<path transform="translate(1118,438)" d="m0 0h17l2 1v2h-14l-9-1z" fill="#271403"/>
<path transform="translate(1405,118)" d="m0 0h3v2l-15 7-3-1 8-5z" fill="#1D0D02"/>
<path transform="translate(128,1385)" d="m0 0h1l-1 13-1 10h-1l-1-21z" fill="#3F2911"/>
<path transform="translate(504,1316)" d="m0 0h4v2l-14 3h-7l1-2z" fill="#1B0B02"/>
<path transform="translate(923,1025)" d="m0 0h2l-1 3-16 7 2-4z" fill="#1F0E02"/>
<path transform="translate(787,984)" d="m0 0h1v16l-3 9h-3l3-10 1-1z" fill="#221103"/>
<path transform="translate(1201,739)" d="m0 0 3 1 1 7h2l-1 3-3-1-2 7-2-4h2z" fill="#241203"/>
<path transform="translate(1324,483)" d="m0 0h3v2l-8 3-10 2v-3z" fill="#1E0E02"/>
<path transform="translate(613,1392)" d="m0 0h11l-3 2-4 1h-14v-2z" fill="#1C0C02"/>
<path transform="translate(654,1388)" d="m0 0h6v2l-2 1-16 1v-3z" fill="#221002"/>
<path transform="translate(713,1175)" d="m0 0 3 1-3 3-10 8-3 1 2-4z" fill="#1D0D02"/>
<path transform="translate(806,1039)" d="m0 0m-1 1v3l-15 11-2-1 5-5z" fill="#1B0B02"/>
<path transform="translate(1347,908)" d="m0 0 4 1 9 10v2l-4-2-9-9z" fill="#1D0D02"/>
<path transform="translate(800,858)" d="m0 0 1 4-4 13-4 2 3-10z" fill="#331F0C"/>
<path transform="translate(1431,726)" d="m0 0 3 4 6 11v6l-2-2-3-8-4-6z" fill="#301C0B"/>
<path transform="translate(1131,532)" d="m0 0h12v3l-21-1v-1z" fill="#281503"/>
<path transform="translate(1352,229)" d="m0 0 3 1-8 5-10 4v-3z" fill="#1F0E02"/>
<path transform="translate(569,1420)" d="m0 0h7v2l-12 2h-7v-2z" fill="#1C0C02"/>
<path transform="translate(164,1327)" d="m0 0 2 1-3 3 1 2-11 6v-4l10-7z" fill="#2F1C0A"/>
<path transform="translate(1234,1224)" d="m0 0 4 1v2l-19 1 1-3z" fill="#221002"/>
<path transform="translate(1479,1084)" d="m0 0 5 3 5 10v2l-4-1-6-12z" fill="#2C1A09"/>
<path transform="translate(1060,851)" d="m0 0 5 5 5 7v2l-4-1-7-11z" fill="#2C1804"/>
<path transform="translate(1342,744)" d="m0 0h3l4 10 4 9h-3l-8-17z" fill="#211002"/>
<path transform="translate(1189,632)" d="m0 0 3 1 6 13v2h-3l-6-14z" fill="#1F0E02"/>
<path transform="translate(1069,506)" d="m0 0h16l7 2v1h-9l-11-1z" fill="#1E0E02"/>
<path transform="translate(1392,163)" d="m0 0 2 1-2 3-10 3h-4v-2z" fill="#1D0D02"/>
<path transform="translate(1330,1342)" d="m0 0h4l2 5-5 2h-4v2h-5l1-2 6-3 2-2z" fill="#321D08"/>
<path transform="translate(1309,1342)" d="m0 0h3l-1 5h-2v2l-7 2 4-7z" fill="#2B1909"/>
<path transform="translate(1218,1251)" d="m0 0 13 1 7 2v1h-9l-11-2z" fill="#1E0E02"/>
<path transform="translate(679,1134)" d="m0 0h2l-2 4-5 5-3 4-2-1 1-2 1-5h4l1-3z" fill="#1E0E02"/>
<path transform="translate(1e3 464)" d="m0 0 19 1 1 2h-14l-6-1z" fill="#221002"/>
<path transform="translate(977,376)" d="m0 0 2 1-3 3h-2v2l-10 8-1-3 12-10z" fill="#37230E"/>
<path transform="translate(1343,122)" d="m0 0h3l-1 3-10 7-2-1 5-6z" fill="#1C0C02"/>
<path transform="translate(1168,116)" d="m0 0v3l-4 9-2 3h-2l1-7 1-3h3l2-4z" fill="#2C1907"/>
<path transform="translate(1699,1355)" d="m0 0m-2 1h2v2l-15 7-4 1v-2z" fill="#1C0C02"/>
<path transform="translate(1547,1331)" d="m0 0 2 4 2 9-4-1-3-6 1-3 1 2z" fill="#35200A"/>
<path transform="translate(651,1296)" d="m0 0 2 1-3 5-4 5-5 2 2-5z" fill="#321F0C"/>
<path transform="translate(1310,1225)" d="m0 0h17l5 1v3l-22-3z" fill="#1D0D02"/>
<path transform="translate(1453,1034)" d="m0 0 2 1 3 9 4 8-4-1-5-11z" fill="#35210E"/>
<path transform="translate(791,933)" d="m0 0m-2 1 2 1-1 1-1 9-3-3-4 1-2 1 2-4z" fill="#200F02"/>
<path transform="translate(1187,277)" d="m0 0 1 2-6 9-3 3h-2l2-5 6-8z" fill="#1B0C02"/>
<path transform="translate(1265,238)" d="m0 0v3l-14 10v-3l5-5z" fill="#1D0D02"/>
<path transform="translate(1345,169)" d="m0 0 2 1v2l-9 7-4 4 1-5z" fill="#200F02"/>
<path transform="translate(137,1350)" d="m0 0h3l2 1-5 8-4 2 1-6z" fill="#321E0A"/>
<path transform="translate(1164,1219)" d="m0 0 3 1 2 2-9 1h-9l1-2z" fill="#1F0E02"/>
<path transform="translate(977,1030)" d="m0 0m-2 1 2 1-3 5-8 7-3 1 2-4z" fill="#1A0B02"/>
<path transform="translate(1019,938)" d="m0 0 3 1-12 8-6 3 2-4z" fill="#594124"/>
<path transform="translate(1331,623)" d="m0 0 3 1-5 13h-3l3-10z" fill="#1F0E02"/>
<path transform="translate(1055,571)" d="m0 0 5 1 9 8v2l-5-2-9-8z" fill="#200F02"/>
<path transform="translate(1374,236)" d="m0 0 3 1-15 8h-3v-2z" fill="#1F0F02"/>
<path transform="translate(227,1390)" d="m0 0 4 1v3l-8 4v-5z" fill="#301C07"/>
<path transform="translate(887,918)" d="m0 0h16v2l-9 1h-9z" fill="#221103"/>
<path transform="translate(865,893)" d="m0 0 4 2-7 2-9 2 2-4z" fill="#1E0D02"/>
<path transform="translate(1409,872)" d="m0 0 4 1-4 12h-3z" fill="#200F02"/>
<path transform="translate(1383,363)" d="m0 0 2 1-1 3-9 5h-2v-3z" fill="#1E0E02"/>
<path transform="translate(1435,145)" d="m0 0h2l4 6v2l-11-2 3-4h2z" fill="#291708"/>
<path transform="translate(890,1015)" d="m0 0 2 2-13 8-2-1 6-5z" fill="#1C0C02"/>
<path transform="translate(884,933)" d="m0 0h5v2l-11 2h-7l2-2z" fill="#1E0D02"/>
<path transform="translate(1210,753)" d="m0 0h1l2 9v6h-2l-2-5-1-8z" fill="#200F02"/>
<path transform="translate(1305,739)" d="m0 0h3l5 10v4h-2l-6-12z" fill="#1F0E02"/>
<path transform="translate(1308,579)" d="m0 0 4 2v7h-3l-2-2z" fill="#594124"/>
<path transform="translate(776,1570)" d="m0 0 2 1 1 2-15 3 1-3z" fill="#1E0E02"/>
<path transform="translate(610,1415)" d="m0 0h6l-2 1v2l-15 1 1-3z" fill="#211002"/>
<path transform="translate(389,1301)" d="m0 0h22l-3 2-7 1-12-2z" fill="#2C1804"/>
<path transform="translate(1459,1051)" d="m0 0 4 1 5 8v2l-3 1-6-10z" fill="#2C1909"/>
<path transform="translate(931,1040)" d="m0 0m-2 1 3 1-4 3-11 5 2-4z" fill="#1E0E02"/>
<path transform="translate(846,840)" d="m0 0 3 1-5 13h-3l3-9z" fill="#1F0E02"/>
<path transform="translate(1280,743)" d="m0 0 4 2 4 9-1 3-3-4-4-8z" fill="#241203"/>
<path transform="translate(1189,728)" d="m0 0h2l2 7v8l-2-1-2-7z" fill="#2C1804"/>
<path transform="translate(1403,687)" d="m0 0 2 3 5 11-4-1-5-10 1-2z" fill="#331F0D"/>
<path transform="translate(922,593)" d="m0 0v3l-7 7-3 1 1-4 7-6z" fill="#1E0E02"/>
<path transform="translate(1181,573)" d="m0 0h4v2l-13 5 1-4z" fill="#1F0E02"/>
<path transform="translate(1089,499)" d="m0 0h7l5 2-1 2-16-2v-1z" fill="#251303"/>
<path transform="translate(1021,458)" d="m0 0 12 1 3 1v2l-18-1z" fill="#231103"/>
<path transform="translate(1303,173)" d="m0 0 2 1-7 10-4 1 2-4z" fill="#1D0D02"/>
<path transform="translate(1294,1343)" d="m0 0 3 1-3 3-10 5-2-1 8-6z" fill="#594124"/>
<path transform="translate(1199,1318)" d="m0 0 14 2 3 2h-10l-8-1z" fill="#1D0D02"/>
<path transform="translate(822,1291)" d="m0 0h4v2l-14 5 2-4z" fill="#1E0E02"/>
<path transform="translate(744,1039)" d="m0 0v3l-10 9-3-2 9-7z" fill="#321F0D"/>
<path transform="translate(954,620)" d="m0 0h3l-2 4-3 3h-2v2l-4 2 2-5z" fill="#594124"/>
<path transform="translate(1156,559)" d="m0 0 4 1-2 2-11 4-2-1 3-3z" fill="#211002"/>
<path transform="translate(884,550)" d="m0 0h3l-2 6-4 8h-1l1-8z" fill="#2D1B09"/>
<path transform="translate(1308,465)" d="m0 0 3 1-8 4-7 2 2-4z" fill="#1E0E02"/>
<path transform="translate(1475,173)" d="m0 0 10 2 9 3-4 1-13-3v-2z" fill="#3C2711"/>
<path transform="translate(1148,1202)" d="m0 0h9v2l-5 1h-11l2-2z" fill="#1C0C02"/>
<path transform="translate(815,1063)" d="m0 0m-2 1 3 1-5 5-8 5 1-4z" fill="#1F0E02"/>
<path transform="translate(1302,770)" d="m0 0 3 1 5 10v2h-3l-5-11z" fill="#1C0C02"/>
<path transform="translate(964,626)" d="m0 0h2l-2 4-10 9v-3z" fill="#594124"/>
<path transform="translate(571,1431)" d="m0 0 3 1-2 2-13 1-1-2z" fill="#211002"/>
<path transform="translate(480,1369)" d="m0 0 16 2v1h-21v-2z" fill="#231103"/>
<path transform="translate(1755,1325)" d="m0 0h15l9 1v1l-15 1v-1l-9-1z" fill="#39240D"/>
<path transform="translate(1186,1206)" d="m0 0h10v2l-6 1h-9l1-2z" fill="#1B0C02"/>
<path transform="translate(922,744)" d="m0 0h2l-2 4-9 8v-3l7-8z" fill="#1E0E02"/>
<path transform="translate(1330,432)" d="m0 0 26 1v1l-20 1h-4z" fill="#594124"/>
<path transform="translate(1264,267)" d="m0 0h2l-2 4-9 6 2-4 5-5z" fill="#1E0E02"/>
<path transform="translate(1178,223)" d="m0 0 4 1 3 8v4h-2z" fill="#1D0D02"/>
<path transform="translate(1162,1514)" d="m0 0 11 1v1l-11 2h-4l1-3z" fill="#36230F"/>
<path transform="translate(1557,1397)" d="m0 0h3l-1 3-9 3-3-1 4-3z" fill="#1D0D02"/>
<path transform="translate(259,1373)" d="m0 0m-3 1 3 1-5 4-7 1-1-2h3v-2z" fill="#594124"/>
<path transform="translate(925,722)" d="m0 0h2l-2 5-5 3-4 3 2-4z" fill="#1E0E02"/>
<path transform="translate(1180,462)" d="m0 0 7 6v1h-16v-1h10z" fill="#261303"/>
<path transform="translate(1216,319)" d="m0 0 3 1 2 6v6h-2l-3-10z" fill="#1B0C02"/>
<path transform="translate(1395,172)" d="m0 0 2 1v2l-11 4h-3v-2z" fill="#1F0E02"/>
<path transform="translate(1421,141)" d="m0 0 4 1-10 4-5 1v-3z" fill="#1F0E02"/>
<path transform="translate(1333,142)" d="m0 0m-2 1 2 1-3 5-5 4-1-3z" fill="#211002"/>
<path transform="translate(786,1067)" d="m0 0m-2 1 3 1-5 4-7 4-2-1z" fill="#1F0E02"/>
<path transform="translate(967,841)" d="m0 0 4 2 5 5v2l-4-1-5-6z" fill="#221002"/>
<path transform="translate(1217,758)" d="m0 0h1l1 11 2 7-4-2-1-9z" fill="#241203"/>
<path transform="translate(1353,745)" d="m0 0 5 5 4 6v2l-3-1-7-11z" fill="#1E0E02"/>
<path transform="translate(1049,301)" d="m0 0 2 3-1 10-3 1 1-9z" fill="#34210E"/>
<path transform="translate(1432,161)" d="m0 0h7l-1 2-9 2h-5l1-2z" fill="#1B0B02"/>
<path transform="translate(1951,1362)" d="m0 0 4 2 2 4v6l-4-5z" fill="#341F0A"/>
<path transform="translate(1285,1343)" d="m0 0m-2 1h2l-1 3-10 6-2-1 5-4z" fill="#594124"/>
<path transform="translate(660,1182)" d="m0 0h3 1l1 9-4 1z" fill="#331E09"/>
<path transform="translate(694,1156)" d="m0 0 4 2-8 5h-3l1-3z" fill="#1F0E02"/>
<path transform="translate(721,1116)" d="m0 0h3v2l-11 6 1-4z" fill="#1E0E02"/>
<path transform="translate(872,1072)" d="m0 0 3 1-3 3-9 5v-3z" fill="#221103"/>
<path transform="translate(980,1019)" d="m0 0h3v2l-10 6-2-1 7-6z" fill="#1A0B02"/>
<path transform="translate(918,777)" d="m0 0h2l-2 5-9 8v-3z" fill="#1E0E02"/>
<path transform="translate(1287,756)" d="m0 0h2l4 12h-3l-3-8z" fill="#211002"/>
<path transform="translate(967,732)" d="m0 0 1 4-3 7h-3l3-9z" fill="#1F0F02"/>
<path transform="translate(848,632)" d="m0 0h1l-1 7-3 11h-1v-7z" fill="#3E2911"/>
<path transform="translate(1161,564)" d="m0 0h3v2l-10 4-3-1 4-3z" fill="#1F0E02"/>
<path transform="translate(1309,549)" d="m0 0 4 1v8l-3-1z" fill="#594124"/>
<path transform="translate(1267,281)" d="m0 0h1v6l-5 5-2-1v-2l4-4z" fill="#594124"/>
<path transform="translate(1535,190)" d="m0 0h7l9 2-4 2-11-2z" fill="#34200D"/>
<path transform="translate(1632,1381)" d="m0 0h4l3 7 2 2h-5z" fill="#2C1804"/>
<path transform="translate(1709,1350)" d="m0 0 2 1v2l-12 5 2-4z" fill="#1F0E02"/>
<path transform="translate(429,1327)" d="m0 0h8v2l-4 1h-9l1-2z" fill="#1A0B02"/>
<path transform="translate(1265,1220)" d="m0 0 4 1 4 2-13 1v-2l-2-1z" fill="#211002"/>
<path transform="translate(1505,1140)" d="m0 0h2l2 12-2 2-2-8z" fill="#34210E"/>
<path transform="translate(850,902)" d="m0 0h4v2l-6 1v5l2 1-4 1 1-9z" fill="#1A0B02"/>
<path transform="translate(822,816)" d="m0 0h2l-2 6-4 8-1-4z" fill="#301D0B"/>
<path transform="translate(1295,555)" d="m0 0 5 5v5h-2l-3-5z" fill="#594124"/>
<path transform="translate(1101,539)" d="m0 0 10 2v3l-12-2z" fill="#200F02"/>
<path transform="translate(952,402)" d="m0 0h2l-2 5-6 10-1-3z" fill="#3B2610"/>
<path transform="translate(1547,193)" d="m0 0h9l3 2v2l-12-2z" fill="#291707"/>
<path transform="translate(1604,1336)" d="m0 0h10l-2 2-13 1 1-2z" fill="#211002"/>
<path transform="translate(884,1065)" d="m0 0m-2 1 3 1-5 4-3 2h-3v-2z" fill="#200F02"/>
<path transform="translate(773,987)" d="m0 0 1 3-4 7h-3l2-6z" fill="#1D0D02"/>
<path transform="translate(1094,867)" d="m0 0 12 6-4 1-8-4z" fill="#211002"/>
<path transform="translate(1339,755)" d="m0 0h2l4 12h-3l-3-9z" fill="#1E0E02"/>
<path transform="translate(1322,742)" d="m0 0 3 1 6 9-3 1-6-9z" fill="#211002"/>
<path transform="translate(1362,745)" d="m0 0 5 2 4 5v2l-4-2-5-5z" fill="#1A0B02"/>
<path transform="translate(1313,657)" d="m0 0 5 2h2l2 3 4-1-3 3-5-1-5-4z" fill="#211002"/>
<path transform="translate(1359,651)" d="m0 0h2l-1 6-3 3h-2l1-4z" fill="#1C0C02"/>
<path transform="translate(1316,564)" d="m0 0 4 4v6l-3-1-1-2z" fill="#594124"/>
<path transform="translate(1318,394)" d="m0 0 1 3-5 7h-2l2-6z" fill="#200F02"/>
<path transform="translate(1394,389)" d="m0 0m-1 1m-1 1m-3 1 3 1-4 6-4 2 2-6z" fill="#281607"/>
<path transform="translate(1383,265)" d="m0 0 1 4-5 2-7-1 3-2 6-2z" fill="#2F1B08"/>
<path transform="translate(1650,240)" d="m0 0 5 2 9 6-3 1-10-6z" fill="#3F2A12"/>
<path transform="translate(1640,234)" d="m0 0 5 2 5 3 1 3-6-2-5-4z" fill="#34200C"/>
<path transform="translate(1574,199)" d="m0 0 10 3 2 2h-7l-5-2z" fill="#34210E"/>
<path transform="translate(1898,1340)" d="m0 0 2 1v9l-3-1v-8z" fill="#39240D"/>
<path transform="translate(657,1315)" d="m0 0h5l2 3h-13v-2z" fill="#200F02"/>
<path transform="translate(851,1298)" d="m0 0 2 1 1 2-10 3-1-4z" fill="#211002"/>
<path transform="translate(1266,1235)" d="m0 0 4 1 1 2-11 1v-3z" fill="#211002"/>
<path transform="translate(1284,1227)" d="m0 0 4 1h-2v2l-12 1 2-3z" fill="#221103"/>
<path transform="translate(668,1107)" d="m0 0 2 4 1 3-5 1v-7z" fill="#37220C"/>
<path transform="translate(888,923)" d="m0 0h13l-1 2-12 1z" fill="#1E0E02"/>
<path transform="translate(892,727)" d="m0 0v3l-4 6h-4l2-4z" fill="#1D0D02"/>
<path transform="translate(1216,628)" d="m0 0 3 1 4 9-2 2-5-10z" fill="#211002"/>
<path transform="translate(958,598)" d="m0 0 2 1-4 7h-2v-6z" fill="#36210B"/>
<path transform="translate(1201,103)" d="m0 0h6l-1 2-13 2h-5l4-2 8-1z" fill="#231103"/>
<path transform="translate(1637,1380)" d="m0 0 3 3 1 6-4-2-1-6z" fill="#594124"/>
<path transform="translate(1221,983)" d="m0 0 5 1 4 4v2l-4-1z" fill="#1B0C02"/>
<path transform="translate(939,756)" d="m0 0 1 3-5 7h-2l2-6z" fill="#1E0E02"/>
<path transform="translate(1294,545)" d="m0 0 6 5 1 5h-2l-5-6z" fill="#594124"/>
<path transform="translate(1623,287)" d="m0 0h5l-3 3-5 2h-3v-2z" fill="#1F0E02"/>
<path transform="translate(1154,143)" d="m0 0 2 4-2 8h-3l-1-2z" fill="#321F0E"/>
<path transform="translate(1182,122)" d="m0 0h2l3 11h-3l-2-5z" fill="#1D0D02"/>
</svg>
